<svg width="133" height="132" viewBox="0 0 133 132" fill="none" xmlns="http://www.w3.org/2000/svg">
<path d="M66.4999 122.332C97.1983 122.332 122.084 97.4461 122.084 66.7477C122.084 36.0493 97.1983 11.1633 66.4999 11.1633C35.8015 11.1633 10.9155 36.0493 10.9155 66.7477C10.9155 97.4461 35.8015 122.332 66.4999 122.332Z" fill="#EEEDF2"/>
<path d="M96.0452 68.8618L95.71 68.9392L95.942 69.1712C100.995 74.0696 96.1483 82.4485 89.3936 80.5149L89.0584 80.4118L89.1358 80.7212C89.703 82.7579 89.3678 84.6142 88.4655 86.0579L98.1592 106.76C98.2624 106.992 98.0303 107.25 97.7725 107.147L87.8983 103.074C87.7436 102.996 87.5631 103.099 87.5116 103.254L84.3405 113.438C84.2631 113.695 83.9022 113.721 83.7991 113.463L73.6928 91.8845C71.9397 92.6579 69.8772 92.6579 68.1241 91.8845L58.0178 113.463C57.9147 113.695 57.5538 113.67 57.4764 113.438L54.3053 103.254C54.2538 103.099 54.0733 102.996 53.9186 103.074L44.0702 107.147C43.8124 107.25 43.5803 106.992 43.6834 106.76L53.3772 86.0579C52.4749 84.5884 52.1139 82.7321 52.7069 80.7212L52.81 80.4118L52.4749 80.5149C45.7202 82.4485 40.8733 74.0696 45.9264 69.1712L46.1842 68.9392L45.8491 68.8618C39.0428 67.1603 39.0428 57.4665 45.8491 55.7649L46.1842 55.6876L45.9264 55.4556C40.8733 50.5829 45.7202 42.1782 52.4749 44.1118L52.81 44.2149L52.7069 43.8798C50.7733 37.1251 59.178 32.2782 64.0506 37.3313L64.2827 37.5634L64.36 37.2282C66.0616 30.422 75.7553 30.422 77.4569 37.2282L77.5342 37.5634L77.7663 37.3313C82.6647 32.2782 91.0436 37.1251 89.11 43.8798L89.0327 44.2149L89.3678 44.1118C94.7045 42.5907 98.8295 47.4892 97.8756 52.0267C97.6178 53.2384 96.9991 54.4243 95.9163 55.4556L95.6842 55.6876L96.0194 55.7649C102.877 57.4665 102.877 67.1603 96.0452 68.8618Z" fill="#D3D5E7"/>
<path d="M63.7154 89.4612L53.6092 111.066C53.5061 111.298 53.1451 111.272 53.0678 111.04L49.8967 100.856C49.8451 100.702 49.6647 100.599 49.51 100.676L39.6615 104.749C39.4037 104.853 39.1717 104.595 39.2748 104.363L48.9686 83.6604C49.8451 85.1042 51.2889 86.187 52.8873 86.6768C55.1045 87.3471 57.6569 86.9346 59.642 84.8979L59.874 84.6659L59.9514 85.001C60.5186 87.1924 61.9623 88.7135 63.7154 89.4612Z" fill="#DA867D"/>
<path fill-rule="evenodd" clip-rule="evenodd" d="M48.8804 82.0247L49.6298 83.2588C50.4027 84.532 51.687 85.4994 53.1126 85.9367C55.0779 86.5304 57.3224 86.1695 59.0882 84.3579L59.0917 84.3543L60.314 83.132L60.7027 84.8167C61.2098 86.764 62.4827 88.0944 64.0189 88.7496L64.7553 89.0636L54.3121 111.389C54.1011 111.853 53.6446 112.02 53.2848 111.999C52.9297 111.979 52.4945 111.766 52.3341 111.284L52.3317 111.277L49.3161 101.593L39.953 105.466L39.9488 105.467C39.0427 105.83 38.1848 104.911 38.5681 104.048L38.5712 104.041L48.8804 82.0247ZM59.4886 86.0851C57.4016 87.7824 54.8757 88.0858 52.6636 87.417L52.6608 87.4161C51.3186 87.0048 50.0729 86.217 49.1219 85.1568L40.5026 103.564L49.1954 99.969C49.856 99.6625 50.469 100.127 50.6305 100.612L50.6329 100.619L53.4341 109.615L62.6944 89.8186C61.2952 89.0301 60.1387 87.765 59.4886 86.0851Z" fill="#1E247E"/>
<path d="M93.364 104.724L83.5155 100.65C83.3608 100.573 83.1804 100.676 83.1288 100.831L79.9577 111.014C79.8804 111.272 79.5194 111.298 79.4163 111.04L69.3101 89.4611C70.7538 88.8424 71.9913 87.708 72.6874 86.058C72.8421 85.6971 72.971 85.3103 73.0741 84.9236L73.1515 84.5885L73.3835 84.8205C75.3687 86.8572 77.921 87.2955 80.1382 86.5994C81.7366 86.1096 83.1804 85.0525 84.0569 83.583L93.7507 104.285C93.8538 104.569 93.6218 104.827 93.364 104.724Z" fill="#DA867D"/>
<path fill-rule="evenodd" clip-rule="evenodd" d="M84.1393 81.9351L94.4657 103.989L94.4775 104.021C94.622 104.418 94.5449 104.855 94.2707 105.163C93.9879 105.481 93.5235 105.62 93.0767 105.442L93.0725 105.44L83.7094 101.567L80.697 111.241C80.4198 112.15 79.1103 112.297 78.7086 111.353L68.2705 89.0651L69.0053 88.7502C70.2769 88.2053 71.3612 87.2116 71.9747 85.7573L71.9756 85.7553L71.9765 85.7533C72.1126 85.4357 72.2289 85.0893 72.3234 84.7367L72.7116 83.0548L73.9339 84.2771L73.9373 84.2806C75.7079 86.0972 77.9522 86.475 79.9065 85.8615L79.909 85.8607L79.9115 85.8599C81.3433 85.4211 82.623 84.4771 83.3927 83.1868L84.1393 81.9351ZM73.5393 86.0105C73.4951 86.1286 73.4484 86.2455 73.3991 86.3606C72.7381 87.9262 71.6368 89.081 70.3311 89.8178L79.5912 109.59L82.3926 100.593L82.395 100.586C82.5565 100.102 83.1695 99.6368 83.8301 99.9433L92.5528 103.551L83.907 85.0867C82.9534 86.1551 81.7056 86.9275 80.3673 87.3381C78.1468 88.0344 75.6219 87.7068 73.5393 86.0105Z" fill="#1E247E"/>
<path d="M91.5851 66.4127L91.2499 66.49L91.4819 66.722C96.5351 71.6205 91.6882 79.9994 84.9335 78.0658L84.5983 77.9626L84.7015 78.272C85.2687 80.3087 84.9335 82.1392 84.0312 83.6087C83.1546 85.0525 81.7108 86.1353 80.1124 86.6251C77.8952 87.2955 75.3429 86.883 73.3577 84.8462L73.1257 84.6142L73.0483 84.9494C72.9452 85.3619 72.8163 85.7228 72.6616 86.0837C71.9655 87.7337 70.728 88.8681 69.2843 89.4869C67.5312 90.2603 65.4687 90.2603 63.7155 89.4869C61.9624 88.7392 60.5187 87.2181 59.9515 84.9494L59.8741 84.6142L59.6421 84.8462C57.6569 86.883 55.1046 87.3212 52.8874 86.6251C51.289 86.1353 49.8452 85.0783 48.9687 83.6087C48.0663 82.1392 47.7054 80.283 48.2983 78.272L48.4015 77.9626L48.0663 78.0658C41.3116 79.9994 36.4647 71.6205 41.5179 66.722L41.7499 66.49L41.4147 66.4127C34.6085 64.7111 34.6085 55.0173 41.4147 53.3158L41.7499 53.2384L41.5179 53.0064C36.4647 48.1337 41.3116 39.7291 48.0663 41.6626L48.4015 41.7658L48.2983 41.4306C46.3647 34.6759 54.7437 29.8291 59.6421 34.8822L59.8741 35.1142L59.9515 34.7791C61.653 27.947 71.3468 27.947 73.0483 34.7791L73.1257 35.1142L73.3577 34.8822C78.2562 29.8291 86.6351 34.6759 84.7015 41.4306L84.5983 41.7658L84.9335 41.6626C90.2702 40.1416 94.3952 45.04 93.4413 49.5775C93.1835 50.7892 92.5647 51.9751 91.4819 53.0064L91.2499 53.2384L91.5851 53.3158C98.3913 55.0173 98.3913 64.7111 91.5851 66.4127Z" fill="white"/>
<path fill-rule="evenodd" clip-rule="evenodd" d="M59.4813 33.6848C54.2081 29.3748 46.2281 33.9917 47.343 40.7075C40.6299 39.5954 36.0096 47.5927 40.3193 52.8473C33.9418 55.2379 33.9424 64.4927 40.3212 66.8819C36.0119 72.1527 40.6229 80.1289 47.3341 79.0226C47.0288 80.8836 47.4459 82.6048 48.307 84.0093C49.2901 85.6548 50.8955 86.8229 52.6579 87.3638C54.8767 88.0596 57.3996 87.7331 59.4813 86.0403C60.2363 88.0578 61.6844 89.4602 63.4079 90.1965C65.3576 91.0551 67.643 91.055 69.5927 90.1962C71.2066 89.5034 72.5954 88.2294 73.3736 86.3859C73.4229 86.2708 73.4701 86.1548 73.5151 86.0368C75.6013 87.7313 78.1255 88.0339 80.3362 87.3655L80.339 87.3646C82.1089 86.8223 83.711 85.6251 84.691 84.0123C85.5593 82.5975 85.9524 80.8903 85.6558 79.021C92.3724 80.1367 96.99 72.1553 92.6786 66.8819C99.0561 64.4932 99.058 55.2418 92.6846 52.8488C93.478 51.8862 93.9667 50.8246 94.1978 49.7385L94.1982 49.7366C95.1985 44.9786 91.1642 39.7952 85.6567 40.7079C86.7721 33.9919 78.7918 29.3747 73.5185 33.6848C71.1302 27.2805 61.8696 27.2805 59.4813 33.6848ZM60.7036 34.9596L60.6278 35.2881C60.5645 35.5621 60.3576 35.7802 60.0873 35.8577C59.8171 35.9352 59.526 35.8599 59.3272 35.6611L59.0952 35.4291C59.0924 35.4263 59.0895 35.4234 59.0868 35.4205C54.7489 30.9457 47.3362 35.235 49.0399 41.2106L49.1407 41.5383C49.225 41.8121 49.1509 42.1101 48.9484 42.3127C48.7458 42.5153 48.4478 42.5893 48.174 42.505L47.8463 42.4042C41.8687 40.6999 37.5845 48.1391 42.0547 52.4496C42.0568 52.4517 42.0589 52.4537 42.061 52.4557C42.0622 52.457 42.0635 52.4582 42.0648 52.4595L42.2968 52.6915C42.4956 52.8903 42.5709 53.1814 42.4934 53.4517C42.4159 53.7219 42.1978 53.9288 41.9238 53.9921L41.5957 54.0678C35.5794 55.5781 35.5794 64.1502 41.5956 65.6606L41.9238 65.7364C42.1978 65.7996 42.4159 66.0065 42.4934 66.2768C42.5709 66.547 42.4956 66.8381 42.2968 67.0369L42.0648 67.2689C42.0619 67.2718 42.0591 67.2746 42.0562 67.2774C37.5814 71.6152 41.8707 79.028 47.8463 77.3242L48.174 77.2234C48.4509 77.1382 48.7522 77.2149 48.9547 77.4221C49.1572 77.6294 49.2268 77.9324 49.1352 78.2072L49.0365 78.5034C48.514 80.2881 48.8357 81.9141 49.6278 83.204L49.6329 83.2125C50.4026 84.5029 51.6822 85.4469 53.114 85.8857L53.1191 85.8872C55.0733 86.5008 57.3176 86.123 59.0882 84.3064L59.0952 84.2993L59.3272 84.0673C59.526 83.8685 59.8171 83.7932 60.0873 83.8708C60.3576 83.9483 60.5645 84.1663 60.6278 84.4403L60.7035 84.7684C61.212 86.7944 62.4863 88.1218 64.0189 88.7754L64.0277 88.7792C65.582 89.4649 67.4178 89.4649 68.9721 88.7792L68.9796 88.776C70.2511 88.231 71.3355 87.2373 71.949 85.7831L71.9507 85.7791C72.0914 85.4509 72.2052 85.1313 72.2964 84.7683L72.3721 84.4403C72.4353 84.1663 72.6422 83.9483 72.9125 83.8707C73.1827 83.7932 73.4738 83.8685 73.6726 84.0673L73.9046 84.2993L73.9116 84.3064C75.6773 86.118 77.9216 86.4788 79.8868 85.8853C81.3126 85.4481 82.597 84.4806 83.37 83.2073L83.3721 83.204C84.1592 81.9222 84.4639 80.3199 83.9614 78.4977L83.8646 78.2072C83.773 77.9324 83.8427 77.6294 84.0451 77.4221C84.2476 77.2149 84.5489 77.1382 84.8258 77.2234L85.1535 77.3242C91.1291 79.028 95.4184 71.6152 90.9436 67.2774C90.9407 67.2746 90.9379 67.2718 90.935 67.2689L90.703 67.0369C90.5042 66.8381 90.4289 66.547 90.5064 66.2768C90.584 66.0065 90.802 65.7996 91.076 65.7364L91.404 65.6607C97.4204 64.1504 97.4204 55.5781 91.4041 54.0678L91.076 53.9921C90.802 53.9288 90.584 53.7219 90.5064 53.4517C90.4289 53.1814 90.5042 52.8903 90.703 52.6915L90.935 52.4595C90.9395 52.4551 90.944 52.4507 90.9485 52.4463C91.9179 51.5231 92.459 50.4767 92.6846 49.4176C93.5352 45.3685 89.8459 41.0725 85.153 42.4043L84.8258 42.505C84.552 42.5893 84.254 42.5153 84.0514 42.3127C83.8489 42.1101 83.7749 41.8121 83.8591 41.5383L83.9599 41.2106C85.6637 35.235 78.2509 30.9457 73.9131 35.4205C73.9115 35.4221 73.9099 35.4237 73.9084 35.4253C73.9071 35.4266 73.9059 35.4278 73.9046 35.4291L73.6726 35.6611C73.4738 35.8599 73.1827 35.9352 72.9125 35.8577C72.6422 35.7802 72.4353 35.5621 72.3721 35.2881L72.2962 34.9596C70.7855 28.9181 62.2142 28.9181 60.7036 34.9596Z" fill="#1E247E"/>
<path d="M75.4459 72.6774L67.0413 68.3719C66.7834 68.243 66.4998 68.243 66.242 68.3719L57.9405 72.8579C57.7858 72.9352 57.5795 72.8063 57.6053 72.6258L59.1006 63.3188C59.1522 63.0352 59.0491 62.7516 58.8428 62.5711L52.0108 56.0485C51.8819 55.9196 51.9592 55.6875 52.1397 55.6618L61.4725 54.1922C61.7561 54.1407 61.9881 53.9602 62.117 53.7282L66.1905 45.2204C66.2678 45.0657 66.4998 45.0399 66.603 45.2204L70.8827 53.625C71.0116 53.8829 71.2436 54.0375 71.5272 54.0891L80.8858 55.3524C81.0663 55.3782 81.1436 55.6102 81.0147 55.7391L74.2858 62.3907C74.0795 62.5969 74.0022 62.8805 74.0538 63.1383L75.7553 72.4196C75.7811 72.6258 75.6006 72.7547 75.4459 72.6774Z" fill="#F0C330"/>
<path fill-rule="evenodd" clip-rule="evenodd" d="M66.4118 46.5494L70.191 53.971C70.1915 53.972 70.192 53.973 70.1925 53.974C70.445 54.4766 70.9005 54.7614 71.389 54.8502L71.4063 54.8533L79.6809 55.9703L73.7406 61.8423L73.739 61.8439C73.3496 62.2332 73.1952 62.7765 73.294 63.2829L74.796 71.4755L67.3906 67.6819L67.3873 67.6802C66.9117 67.4425 66.3718 67.4425 65.8963 67.6802L65.8853 67.6857L58.5453 71.6521L59.8633 63.4482C59.9587 62.9058 59.7652 62.3597 59.367 62.0022L53.3469 56.2548L61.602 54.9549L61.611 54.9533C62.1361 54.8578 62.5587 54.526 62.7933 54.1039L62.8046 54.0834L66.4118 46.5494ZM65.4988 44.8746C65.8404 44.1913 66.8518 44.0968 67.2746 44.8367L67.2839 44.8529L71.5733 53.2767L71.5746 53.2793C71.5819 53.294 71.5877 53.2989 71.5931 53.3026C71.5996 53.3073 71.6174 53.3178 71.6533 53.3258L80.9923 54.5864L80.9953 54.5868C81.8067 54.7027 82.1413 55.7065 81.5617 56.2861L81.5601 56.2877L74.8328 62.9377C74.8326 62.9379 74.8323 62.9382 74.8321 62.9384C74.8115 62.9595 74.8109 62.9797 74.8123 62.9867L74.8135 62.9928L76.5202 72.3019L76.5229 72.3237C76.5673 72.6791 76.4341 73.0359 76.1477 73.262C75.8636 73.4862 75.4597 73.5491 75.1002 73.3693L75.0968 73.3676L66.6933 69.0627C66.6686 69.0507 66.6519 69.0488 66.6418 69.0488C66.6323 69.0488 66.6171 69.0505 66.595 69.0605L58.2975 73.5442L58.2865 73.5497C57.9232 73.7314 57.5376 73.6563 57.2763 73.4822C57.0061 73.302 56.7776 72.952 56.8398 72.5165L56.8407 72.5099L58.3384 63.1884L58.3398 63.1805C58.3411 63.1734 58.3404 63.1673 58.3385 63.1619C58.3364 63.156 58.3338 63.1535 58.3336 63.1533L58.321 63.1423L51.4703 56.6018L51.464 56.5955C50.8861 56.0176 51.217 55.0181 52.0232 54.8973L61.3392 53.4304C61.3756 53.4223 61.4109 53.3984 61.4339 53.3643L65.4958 44.8805L65.4988 44.8746Z" fill="#1E247E"/>
<path fill-rule="evenodd" clip-rule="evenodd" d="M52.6327 46.1058C52.7418 45.9651 52.9442 45.9395 53.0849 46.0485L55.1474 47.647C55.2881 47.756 55.3137 47.9584 55.2047 48.0991C55.0957 48.2398 54.8932 48.2654 54.7526 48.1564L52.6901 46.558C52.5494 46.4489 52.5237 46.2465 52.6327 46.1058Z" fill="#1E247E"/>
<path fill-rule="evenodd" clip-rule="evenodd" d="M52.6314 44.1225C52.7394 43.9811 52.9417 43.954 53.0831 44.062L57.2339 47.2331C57.3753 47.3412 57.4024 47.5434 57.2943 47.6849C57.1863 47.8263 56.984 47.8534 56.8426 47.7453L52.6918 44.5742C52.5504 44.4662 52.5233 44.2639 52.6314 44.1225Z" fill="#1E247E"/>
<path fill-rule="evenodd" clip-rule="evenodd" d="M55.6211 44.4076C55.7284 44.2655 55.9305 44.2374 56.0725 44.3447L57.2326 45.2213C57.3746 45.3286 57.4028 45.5307 57.2955 45.6727C57.1882 45.8147 56.9861 45.8428 56.8441 45.7355L55.6839 44.859C55.5419 44.7517 55.5138 44.5496 55.6211 44.4076Z" fill="#1E247E"/>
<path fill-rule="evenodd" clip-rule="evenodd" d="M89.6518 70.2058C89.8635 70.1776 90.058 70.3263 90.0862 70.538C90.3128 72.2369 89.4941 73.9486 88.1187 74.903C87.9432 75.0247 87.7023 74.9812 87.5805 74.8057C87.4587 74.6302 87.5023 74.3893 87.6778 74.2675C88.8289 73.4688 89.5056 72.0351 89.3196 70.6403C89.2914 70.4286 89.4401 70.2341 89.6518 70.2058Z" fill="#1E247E"/>
<path fill-rule="evenodd" clip-rule="evenodd" d="M86.9963 45.2334C87.1031 45.0484 87.3397 44.9851 87.5246 45.092C88.8019 45.83 89.6514 47.2711 89.6514 48.7526C89.6514 48.9662 89.4783 49.1393 89.2647 49.1393C89.0511 49.1393 88.878 48.9662 88.878 48.7526C88.878 47.5528 88.1806 46.3643 87.1377 45.7617C86.9527 45.6548 86.8894 45.4183 86.9963 45.2334Z" fill="#1E247E"/>
<path d="M110.019 84.8462C103.573 84.511 103.754 77.3696 103.754 77.3696C103.573 85.2329 97.1279 84.8462 97.1279 84.8462C97.1279 84.8462 103.754 85.4907 103.754 92.1423C103.754 92.1423 104.579 85.4907 110.019 84.8462Z" fill="white"/>
<path d="M113.654 76.7251C110.766 76.5704 110.844 73.3735 110.844 73.3735C110.766 76.9056 107.879 76.7251 107.879 76.7251C107.879 76.7251 110.844 77.0087 110.844 79.9993C110.844 79.9993 111.23 77.0087 113.654 76.7251Z" fill="white"/>
<path d="M106.126 70.4602C104.295 70.3571 104.347 68.3462 104.347 68.3462C104.295 70.5634 102.465 70.4602 102.465 70.4602C102.465 70.4602 104.347 70.6407 104.347 72.5227C104.347 72.5227 104.579 70.6407 106.126 70.4602Z" fill="white"/>
<path d="M34.8406 51.9749C33.0102 51.8718 33.0617 49.8608 33.0617 49.8608C33.0102 52.078 31.1797 51.9749 31.1797 51.9749C31.1797 51.9749 33.0617 52.1554 33.0617 54.0374C33.0875 54.0374 33.3195 52.1554 34.8406 51.9749Z" fill="white"/>
<path d="M42.1109 39.1875C39.2234 39.0328 39.3008 35.8359 39.3008 35.8359C39.2234 39.368 36.3359 39.1875 36.3359 39.1875C36.3359 39.1875 39.3008 39.4711 39.3008 42.4617C39.3008 42.4617 39.6875 39.4711 42.1109 39.1875Z" fill="white"/>
<path d="M34.0671 42.5649C28.2921 42.2556 28.4468 35.8618 28.4468 35.8618C28.2921 42.9001 22.5171 42.5649 22.5171 42.5649C22.5171 42.5649 28.4468 43.1321 28.4468 49.1134C28.4468 49.0876 29.1687 43.1063 34.0671 42.5649Z" fill="white"/>
</svg>
