<svg width="133" height="132" viewBox="0 0 133 132" fill="none" xmlns="http://www.w3.org/2000/svg">
<path d="M66.3969 121.894C97.0953 121.894 121.981 97.0079 121.981 66.3095C121.981 35.6111 97.0953 10.7251 66.3969 10.7251C35.6985 10.7251 10.8125 35.6111 10.8125 66.3095C10.8125 97.0079 35.6985 121.894 66.3969 121.894Z" fill="#EEEDF2"/>
<path d="M96.7416 106.27H43.3486C38.8884 106.27 35.2791 102.661 35.2791 98.2009V62.4423C35.2791 57.9822 38.8884 54.3728 43.3486 54.3728H96.7416C101.202 54.3728 104.811 57.9822 104.811 62.4423V98.2267C104.811 102.661 101.202 106.27 96.7416 106.27Z" fill="#D3D5E7"/>
<path d="M104.553 86.8571H90.0127C86.6869 86.8571 84.0056 84.1758 84.0056 80.8501V79.8188C84.0056 76.493 86.6869 73.8118 90.0127 73.8118H104.553C106.358 73.8118 107.827 75.2813 107.827 77.086V83.5829C107.827 85.3876 106.358 86.8571 104.553 86.8571Z" fill="#D3D5E7"/>
<path d="M101.228 60.2508L67.3768 79.7672C66.3456 80.3602 65.0307 79.9993 64.4635 78.9938L52.7331 58.6266C52.1401 57.5954 52.501 56.2805 53.5065 55.7133L87.3573 36.1969C88.3885 35.604 89.7034 35.9649 90.2706 36.9704L102.001 57.3376C102.62 58.343 102.259 59.6579 101.228 60.2508Z" fill="#D3D5E7"/>
<path d="M84.5986 45.1946L60.9056 76.2352C60.1838 77.1634 58.8431 77.3438 57.915 76.6477L39.1978 62.3907C38.2697 61.6688 38.0892 60.3282 38.7853 59.4001L62.4783 28.3595C63.2002 27.4313 64.5408 27.2509 65.4689 27.947L84.1603 42.2298C85.14 42.9259 85.3205 44.2665 84.5986 45.1946Z" fill="#D3D5E7"/>
<path d="M97.2054 59.6837L63.3546 79.2001C62.3233 79.7931 61.0085 79.4321 60.4413 78.4267L48.7108 58.0595C48.1179 57.0282 48.4788 55.7134 49.4843 55.1462L83.3351 35.6298C84.3663 35.0368 85.6812 35.3978 86.2483 36.4032L97.9788 56.7704C98.5976 57.7759 98.2366 59.0907 97.2054 59.6837Z" fill="white"/>
<path fill-rule="evenodd" clip-rule="evenodd" d="M85.5748 36.7833C85.2228 36.1594 84.3872 35.9177 83.7215 36.2999L83.7207 36.3004M49.3813 57.6738C48.9986 57.008 49.2403 56.172 49.8644 55.8199L49.8676 55.8182L83.7207 36.3004M49.3813 57.6738C49.3813 57.6738 49.3814 57.6739 49.3813 57.6738V57.6738ZM49.3813 57.6738L61.1134 78.0438L61.1151 78.0468C61.4672 78.671 62.3033 78.9126 62.9692 78.5297L96.8192 59.0137L96.8199 59.0133C97.4905 58.6278 97.7 57.793 97.3202 57.1759L97.3143 57.1663L85.5765 36.7863L85.5748 36.7833M86.9201 36.0199C86.1368 34.6358 84.3451 34.157 82.9496 34.9594L82.9488 34.9598L49.1044 54.4726C49.1033 54.4733 49.1022 54.4739 49.1011 54.4745C47.7169 55.2578 47.238 57.0496 48.0404 58.4451L59.7678 78.8068C59.7684 78.8078 59.769 78.8089 59.7696 78.81C60.5528 80.1943 62.3447 80.6731 63.7402 79.8707L63.741 79.8703L97.591 60.3543C97.5913 60.3541 97.5915 60.354 97.5918 60.3538M86.9221 36.0233C86.9214 36.0222 86.9208 36.021 86.9201 36.0199L86.9221 36.0233Z" fill="#1E247E"/>
<path d="M84.2254 61.8634C85.7427 60.989 86.2639 59.0501 85.3895 57.5327C84.515 56.0153 82.5761 55.4941 81.0587 56.3686C79.5414 57.243 79.0202 59.182 79.8946 60.6993C80.7691 62.2167 82.708 62.7379 84.2254 61.8634Z" fill="#79CAA1"/>
<path d="M88.8575 59.2157C90.3748 58.3413 90.896 56.4023 90.0216 54.885C89.1471 53.3676 87.2082 52.8464 85.6908 53.7209C84.1734 54.5953 83.6522 56.5343 84.5267 58.0516C85.4011 59.569 87.3401 60.0902 88.8575 59.2157Z" fill="#F0C330"/>
<path d="M88.4255 40.1446L50.8772 61.7834L54.7004 68.4175L92.2486 46.7787L88.4255 40.1446Z" fill="#79CAA1"/>
<path fill-rule="evenodd" clip-rule="evenodd" d="M49.8208 61.4995L88.7093 39.0884L93.3048 47.0626L54.4163 69.4738L49.8208 61.4995ZM51.9334 62.0674L54.9842 67.3612L91.1922 46.4948L88.1414 41.2009L51.9334 62.0674Z" fill="#1E247E"/>
<path opacity="0.8" d="M78.0501 47.1026L79.6743 46.1487L78.3337 50.4026L79.2876 49.6807L77.5603 54.2698L75.4204 55.5073L78.0501 47.1026Z" fill="white"/>
<path opacity="0.8" d="M76.8642 47.7729L74.2345 56.2034L72.4556 57.2089L75.0595 48.8042L76.8642 47.7729Z" fill="white"/>
<path fill-rule="evenodd" clip-rule="evenodd" d="M98.31 36.2165C98.3562 36.7127 97.9914 37.1524 97.4952 37.1986L95.278 37.4048C94.7818 37.451 94.3421 37.0861 94.2959 36.5899C94.2498 36.0937 94.6146 35.6541 95.1108 35.6079L97.328 35.4016C97.8242 35.3555 98.2639 35.7203 98.31 36.2165Z" fill="white"/>
<path fill-rule="evenodd" clip-rule="evenodd" d="M96.4964 32.2702C96.7856 32.676 96.691 33.2395 96.2852 33.5287L94.2227 34.9982C93.8168 35.2874 93.2533 35.1928 92.9642 34.7869C92.675 34.381 92.7696 33.8176 93.1754 33.5284L95.2379 32.0589C95.6438 31.7697 96.2073 31.8643 96.4964 32.2702Z" fill="white"/>
<path fill-rule="evenodd" clip-rule="evenodd" d="M92.9536 29.2142C93.4213 29.3862 93.661 29.9048 93.489 30.3725L92.664 32.6155C92.492 33.0832 91.9734 33.3229 91.5056 33.1509C91.0379 32.9788 90.7982 32.4602 90.9703 31.9925L91.7953 29.7495C91.9673 29.2818 92.4859 29.0421 92.9536 29.2142Z" fill="white"/>
<path d="M80.5767 44.6274L56.8838 75.668C56.1619 76.5961 54.8213 76.7766 53.8931 76.0805L35.2017 61.7977C34.2736 61.0758 34.0931 59.7352 34.7892 58.8071L58.4822 27.7664C59.2041 26.8383 60.5447 26.6578 61.4728 27.3539L80.1642 41.6368C81.1181 42.3586 81.2986 43.6993 80.5767 44.6274Z" fill="white"/>
<path fill-rule="evenodd" clip-rule="evenodd" d="M59.0945 28.2389L35.4079 59.2713C35.4073 59.272 35.4067 59.2728 35.4061 59.2736C34.9683 59.86 35.0785 60.7202 35.6741 61.1855C35.6749 61.1861 35.6757 61.1867 35.6765 61.1873L54.3571 75.4619C54.3579 75.4625 54.3588 75.4631 54.3596 75.4638C54.946 75.9014 55.806 75.7912 56.2712 75.1957C56.2719 75.1949 56.2725 75.1941 56.2731 75.1933L79.9639 44.1554L79.9661 44.1527C80.4187 43.5708 80.3135 42.7198 79.6974 42.2536L79.6945 42.2514L61.0087 27.9728C61.0078 27.9722 61.007 27.9716 61.0062 27.971C60.4198 27.5333 59.5598 27.6435 59.0945 28.2389ZM57.8716 27.2917C58.8498 26.0339 60.6678 25.7836 61.9368 26.7353L61.9396 26.7374L80.6308 41.0201C80.6314 41.0205 80.6319 41.021 80.6325 41.0214C81.9218 41.9984 82.1775 43.8256 81.1895 45.0993C81.1887 45.1003 81.1879 45.1013 81.1871 45.1023L57.4963 76.1402L57.4942 76.143C56.5159 77.4007 54.698 77.6511 53.429 76.6994L53.4262 76.6973L34.7294 62.4104L34.7268 62.4083C33.469 61.4301 33.2186 59.6121 34.1704 58.3431L34.1723 58.3405L57.8694 27.2945L57.8716 27.2917Z" fill="#1E247E"/>
<path d="M69.434 51.6528C70.4967 50.2608 70.2298 48.2709 68.8378 47.2082C67.4458 46.1454 65.4559 46.4124 64.3932 47.8043C63.3305 49.1963 63.5974 51.1862 64.9894 52.2489C66.3813 53.3116 68.3713 53.0447 69.434 51.6528Z" fill="#79CAA1"/>
<path d="M72.706 47.4262C73.7687 46.0342 73.5018 44.0443 72.1098 42.9816C70.7178 41.9189 68.7279 42.1858 67.6652 43.5778C66.6025 44.9697 66.8694 46.9596 68.2614 48.0224C69.6533 49.0851 71.6432 48.8182 72.706 47.4262Z" fill="#F0C330"/>
<path d="M64.928 29.994L38.6304 64.4392L44.7162 69.0855L71.0138 34.6402L64.928 29.994Z" fill="#69AEF8"/>
<path fill-rule="evenodd" clip-rule="evenodd" d="M37.5464 64.5847L64.7827 28.91L72.098 34.4949L44.8617 70.1696L37.5464 64.5847ZM39.7145 64.2939L44.5708 68.0015L69.9299 34.7857L65.0735 31.0781L39.7145 64.2939Z" fill="#1E247E"/>
<path opacity="0.8" d="M58.0439 40.425L59.1783 38.9297L59.5908 43.3383L60.1838 42.3328L60.3643 47.2312L58.8689 49.1906L58.0439 40.425Z" fill="white"/>
<path opacity="0.8" d="M57.2188 41.5078L58.0181 50.2992L56.7806 51.8977L55.9556 43.132L57.2188 41.5078Z" fill="white"/>
<path d="M52.4235 67.2633C54.6149 64.3758 56.8321 61.4883 59.0235 58.6008C59.5907 57.8531 58.3274 57.1055 57.7602 57.8531C55.5688 60.7406 53.3516 63.6281 51.1602 66.5156C50.5931 67.2633 51.8563 68.011 52.4235 67.2633Z" fill="#1E247E"/>
<path fill-rule="evenodd" clip-rule="evenodd" d="M63.6458 19.7238C64.1008 19.9272 64.3047 20.4609 64.1013 20.9159L63.1216 23.1073C62.9182 23.5622 62.3845 23.7662 61.9296 23.5628C61.4746 23.3594 61.2707 22.8257 61.4741 22.3707L62.4537 20.1793C62.6571 19.7244 63.1908 19.5204 63.6458 19.7238Z" fill="white"/>
<path fill-rule="evenodd" clip-rule="evenodd" d="M58.9967 19.4527C59.4876 19.3666 59.9553 19.6948 60.0413 20.1857L60.4796 22.6865C60.5656 23.1773 60.2374 23.645 59.7465 23.731C59.2557 23.8171 58.788 23.4889 58.702 22.998L58.2637 20.4972C58.1777 20.0064 58.5059 19.5387 58.9967 19.4527Z" fill="white"/>
<path fill-rule="evenodd" clip-rule="evenodd" d="M54.9276 21.0249C55.3047 20.6991 55.8745 20.7408 56.2003 21.118L57.6698 22.8196C57.9955 23.1967 57.9538 23.7665 57.5767 24.0923C57.1995 24.418 56.6297 24.3763 56.304 23.9991L54.8344 22.2976C54.5087 21.9204 54.5504 21.3506 54.9276 21.0249Z" fill="white"/>
<path d="M92.5649 105.703H39.4555C34.918 105.703 31.2571 102.016 31.2571 97.5047V62.0297C31.2571 57.4922 34.9438 53.8313 39.4555 53.8313H92.5649C97.1024 53.8313 100.763 57.518 100.763 62.0297V97.5047C100.789 102.042 97.1024 105.703 92.5649 105.703Z" fill="#DA867D"/>
<path fill-rule="evenodd" clip-rule="evenodd" d="M39.4555 54.6047C35.3694 54.6047 32.0305 57.921 32.0305 62.0297V97.5047C32.0305 101.591 35.3468 104.93 39.4555 104.93H92.5649C96.6793 104.93 100.013 101.612 99.9899 97.5091L99.9899 97.5069V62.0297C99.9899 57.9436 96.6737 54.6047 92.5649 54.6047H39.4555ZM30.4836 62.0297C30.4836 57.0635 34.5182 53.0579 39.4555 53.0579H92.5649C97.5311 53.0579 101.537 57.0924 101.537 62.0297V97.5032C101.563 102.474 97.5246 106.477 92.5649 106.477H39.4555C34.4893 106.477 30.4836 102.442 30.4836 97.5047V62.0297Z" fill="#1E247E"/>
<path fill-rule="evenodd" clip-rule="evenodd" d="M49.332 78.9007C49.4404 78.7595 49.6427 78.7329 49.7839 78.8413L52.0011 80.5428C52.1422 80.6512 52.1689 80.8535 52.0605 80.9947C51.9521 81.1359 51.7498 81.1625 51.6087 81.0542L49.3915 79.3526C49.2503 79.2442 49.2236 79.0419 49.332 78.9007Z" fill="#1E247E"/>
<path fill-rule="evenodd" clip-rule="evenodd" d="M49.332 76.7608C49.4404 76.6197 49.6427 76.593 49.7839 76.7014L54.2182 80.1045C54.3594 80.2129 54.3861 80.4152 54.2777 80.5564C54.1693 80.6976 53.967 80.7242 53.8258 80.6158L49.3915 77.2127C49.2503 77.1043 49.2236 76.902 49.332 76.7608Z" fill="#1E247E"/>
<path fill-rule="evenodd" clip-rule="evenodd" d="M52.5266 77.073C52.6334 76.9306 52.8354 76.9018 52.9778 77.0086L54.2153 77.9367C54.3577 78.0435 54.3865 78.2455 54.2798 78.3879C54.173 78.5302 53.971 78.5591 53.8286 78.4523L52.5911 77.5242C52.4487 77.4174 52.4198 77.2154 52.5266 77.073Z" fill="#1E247E"/>
<path fill-rule="evenodd" clip-rule="evenodd" d="M34.686 97.5046C34.8996 97.5046 35.0728 97.6778 35.0728 97.8914C35.0728 99.8708 36.6801 101.501 38.6821 101.501C38.8957 101.501 39.0688 101.674 39.0688 101.887C39.0688 102.101 38.8957 102.274 38.6821 102.274C36.2497 102.274 34.2993 100.295 34.2993 97.8914C34.2993 97.6778 34.4725 97.5046 34.686 97.5046Z" fill="#1E247E"/>
<path fill-rule="evenodd" clip-rule="evenodd" d="M97.386 97.479C97.5996 97.479 97.7727 97.6521 97.7727 97.8657C97.7727 100.298 95.7933 102.249 93.3899 102.249C93.1763 102.249 93.0032 102.075 93.0032 101.862C93.0032 101.648 93.1763 101.475 93.3899 101.475C95.3693 101.475 96.9993 99.8677 96.9993 97.8657C96.9993 97.6521 97.1724 97.479 97.386 97.479Z" fill="#1E247E"/>
<path fill-rule="evenodd" clip-rule="evenodd" d="M93.0032 57.1055C93.0032 56.8919 93.1763 56.7188 93.3899 56.7188C95.8223 56.7188 97.7727 58.6982 97.7727 61.1016C97.7727 61.3151 97.5996 61.4883 97.386 61.4883C97.1724 61.4883 96.9993 61.3151 96.9993 61.1016C96.9993 59.1221 95.3919 57.4922 93.3899 57.4922C93.1763 57.4922 93.0032 57.319 93.0032 57.1055Z" fill="#1E247E"/>
<path fill-rule="evenodd" clip-rule="evenodd" d="M38.6821 57.4922C36.7027 57.4922 35.0728 59.0996 35.0728 61.1016C35.0728 61.3151 34.8996 61.4883 34.686 61.4883C34.4725 61.4883 34.2993 61.3151 34.2993 61.1016C34.2993 58.6692 36.2788 56.7188 38.6821 56.7188C38.8957 56.7188 39.0688 56.8919 39.0688 57.1055C39.0688 57.319 38.8957 57.4922 38.6821 57.4922Z" fill="#1E247E"/>
<path fill-rule="evenodd" clip-rule="evenodd" d="M30.9348 71.208C30.9348 71.03 31.0791 70.8857 31.2571 70.8857H34.1704C34.3483 70.8857 34.4926 71.03 34.4926 71.208C34.4926 71.386 34.3483 71.5303 34.1704 71.5303H31.2571C31.0791 71.5303 30.9348 71.386 30.9348 71.208Z" fill="#1E247E"/>
<path fill-rule="evenodd" clip-rule="evenodd" d="M30.9348 86.29C30.9348 86.1121 31.0791 85.9678 31.2571 85.9678H34.1704C34.3483 85.9678 34.4926 86.1121 34.4926 86.29C34.4926 86.468 34.3483 86.6123 34.1704 86.6123H31.2571C31.0791 86.6123 30.9348 86.468 30.9348 86.29Z" fill="#1E247E"/>
<path fill-rule="evenodd" clip-rule="evenodd" d="M97.863 66.8767C97.863 66.6987 98.0073 66.5544 98.1853 66.5544H101.099C101.277 66.5544 101.421 66.6987 101.421 66.8767C101.421 67.0547 101.277 67.199 101.099 67.199H98.1853C98.0073 67.199 97.863 67.0547 97.863 66.8767Z" fill="#1E247E"/>
<path d="M100.454 86.2899H86.0166C82.6908 86.2899 80.0095 83.6087 80.0095 80.2829V79.2517C80.0095 75.9259 82.6908 73.2446 86.0166 73.2446H100.454C102.31 73.2446 103.806 74.7399 103.806 76.5962V82.9126C103.806 84.7688 102.31 86.2899 100.454 86.2899Z" fill="white"/>
<path fill-rule="evenodd" clip-rule="evenodd" d="M86.0166 74.0181C83.1179 74.0181 80.783 76.353 80.783 79.2517V80.2829C80.783 83.1815 83.1179 85.5165 86.0166 85.5165H100.454C101.875 85.5165 103.032 84.3494 103.032 82.9126V76.5962C103.032 75.1671 101.883 74.0181 100.454 74.0181H86.0166ZM79.2361 79.2517C79.2361 75.4987 82.2636 72.4712 86.0166 72.4712H100.454C102.737 72.4712 104.579 74.3128 104.579 76.5962V82.9126C104.579 85.1883 102.745 87.0634 100.454 87.0634H86.0166C82.2636 87.0634 79.2361 84.0358 79.2361 80.2829V79.2517Z" fill="#1E247E"/>
<path d="M86.8416 82.1908C88.0804 82.1908 89.0846 81.1866 89.0846 79.9478C89.0846 78.709 88.0804 77.7048 86.8416 77.7048C85.6028 77.7048 84.5986 78.709 84.5986 79.9478C84.5986 81.1866 85.6028 82.1908 86.8416 82.1908Z" fill="#F0C330"/>
<path fill-rule="evenodd" clip-rule="evenodd" d="M86.8416 78.3494C85.9588 78.3494 85.2432 79.065 85.2432 79.9478C85.2432 80.8306 85.9588 81.5462 86.8416 81.5462C87.7244 81.5462 88.44 80.8306 88.44 79.9478C88.44 79.065 87.7244 78.3494 86.8416 78.3494ZM83.9541 79.9478C83.9541 78.3531 85.2469 77.0603 86.8416 77.0603C88.4363 77.0603 89.7291 78.3531 89.7291 79.9478C89.7291 81.5425 88.4363 82.8353 86.8416 82.8353C85.2469 82.8353 83.9541 81.5425 83.9541 79.9478Z" fill="#1E247E"/>
<path fill-rule="evenodd" clip-rule="evenodd" d="M100.467 79.9478C100.467 79.7698 100.611 79.6255 100.789 79.6255H103.703C103.881 79.6255 104.025 79.7698 104.025 79.9478C104.025 80.1257 103.881 80.27 103.703 80.27H100.789C100.611 80.27 100.467 80.1257 100.467 79.9478Z" fill="#1E247E"/>
<path d="M35.4851 47.4375C33.3194 47.3343 33.371 44.9109 33.371 44.9109C33.3194 47.5664 31.1538 47.4375 31.1538 47.4375C31.1538 47.4375 33.371 47.6437 33.371 49.8867C33.371 49.8867 33.6288 47.6437 35.4851 47.4375Z" fill="white"/>
<path d="M31.1023 43.3641C29.7359 43.2867 29.7617 41.7656 29.7617 41.7656C29.7359 43.4414 28.3438 43.3641 28.3438 43.3641C28.3438 43.3641 29.7617 43.493 29.7617 44.9109C29.7617 44.9109 29.9422 43.493 31.1023 43.3641Z" fill="white"/>
<path d="M30.2257 48.2882C25.3789 48.0304 25.5078 42.6421 25.5078 42.6421C25.3789 48.546 20.532 48.2882 20.532 48.2882C20.532 48.2882 25.5078 48.778 25.5078 53.7796C25.5078 53.7796 26.1523 48.7522 30.2257 48.2882Z" fill="white"/>
</svg>
