<svg width="133" height="132" viewBox="0 0 133 132" fill="none" xmlns="http://www.w3.org/2000/svg">
<path d="M66.4999 121.662C97.241 121.662 122.162 96.7412 122.162 66.0001C122.162 35.259 97.241 10.3384 66.4999 10.3384C35.7587 10.3384 10.8381 35.259 10.8381 66.0001C10.8381 96.7412 35.7587 121.662 66.4999 121.662Z" fill="#EEEDF2"/>
<path fill-rule="evenodd" clip-rule="evenodd" d="M114.066 121.481C114.066 121.054 114.413 120.708 114.84 120.708H121.955C122.383 120.708 122.729 121.054 122.729 121.481C122.729 121.908 122.383 122.255 121.955 122.255H114.84C114.413 122.255 114.066 121.908 114.066 121.481Z" fill="#1E247E"/>
<path fill-rule="evenodd" clip-rule="evenodd" d="M18.3406 121.481C18.3406 121.054 18.6869 120.708 19.114 120.708H111.746C112.173 120.708 112.519 121.054 112.519 121.481C112.519 121.908 112.173 122.255 111.746 122.255H19.114C18.6869 122.255 18.3406 121.908 18.3406 121.481Z" fill="#1E247E"/>
<path fill-rule="evenodd" clip-rule="evenodd" d="M10.1421 121.481C10.1421 121.054 10.4884 120.708 10.9155 120.708H15.5562C15.9833 120.708 16.3296 121.054 16.3296 121.481C16.3296 121.908 15.9833 122.255 15.5562 122.255H10.9155C10.4884 122.255 10.1421 121.908 10.1421 121.481Z" fill="#1E247E"/>
<path d="M75.1366 81.5462H60.6733C49.6905 81.5462 41.0022 72.265 41.6467 61.3079C42.1108 53.4189 43.3225 46.2259 44.2764 43.6736C46.5194 37.7181 55.4139 23.5126 75.1881 30.422C75.1881 30.422 88.2077 27.5603 91.9202 44.215C93.0545 49.2939 93.8537 55.3525 94.2147 61.3853C94.885 72.3423 86.0936 81.5462 75.1366 81.5462Z" fill="#EFC12F"/>
<path fill-rule="evenodd" clip-rule="evenodd" d="M53.5972 32.86C48.791 36.1752 46.0863 41.0628 45.0006 43.9452C44.5535 45.1419 44.0215 47.5102 43.5422 50.6076C43.0658 53.6866 42.6495 57.4328 42.4188 61.3533C41.8003 71.8693 50.1387 80.7727 60.6733 80.7727H75.1366C85.6546 80.7727 94.0854 71.9379 93.4427 61.4324L93.4426 61.4314C93.0837 55.4318 92.2891 49.415 91.1653 44.3835L91.1653 44.3832C89.361 36.2891 85.3454 33.0665 81.8952 31.7989C80.1439 31.1554 78.4969 31.0008 77.2853 31.0084C76.6807 31.0122 76.1885 31.0564 75.8514 31.0989C75.683 31.1201 75.5537 31.1408 75.469 31.1556C75.4266 31.1631 75.3954 31.169 75.376 31.1729C75.3663 31.1748 75.3596 31.1762 75.356 31.177L75.3542 31.1773L75.3534 31.1775L75.3529 31.1776L75.3527 31.1776L75.14 31.2244L74.933 31.1521C65.2676 27.7748 58.3601 29.5748 53.5972 32.86ZM75.2479 29.6241C65.2387 26.1835 57.8742 28.0308 52.7189 31.5867C47.574 35.1355 44.71 40.3277 43.5526 43.4009L43.5519 43.4027C43.0452 44.7586 42.4945 47.2626 42.0135 50.3711C41.5296 53.499 41.1081 57.2938 40.8746 61.2624C40.2042 72.6605 49.2423 82.3196 60.6733 82.3196H75.1366C86.5324 82.3196 95.6843 72.7469 94.9867 61.3386C94.6238 55.2728 93.82 49.1727 92.6751 44.0466C90.7668 35.486 86.4165 31.8121 82.4287 30.3469C80.4611 29.624 78.6212 29.4531 77.2756 29.4616C76.6016 29.4658 76.0476 29.5151 75.6582 29.5641C75.4898 29.5853 75.3518 29.6065 75.2479 29.6241Z" fill="#1E247E"/>
<path fill-rule="evenodd" clip-rule="evenodd" d="M69.7618 43.1969C69.8542 43.3895 69.773 43.6204 69.5804 43.7128C67.0211 44.9402 64.6422 45.6464 62.5226 46.0389C62.3126 46.0778 62.1109 45.9391 62.072 45.7291C62.0331 45.519 62.1718 45.3173 62.3818 45.2784C64.4388 44.8975 66.7521 44.2114 69.2459 43.0154C69.4385 42.9231 69.6695 43.0043 69.7618 43.1969Z" fill="#1E247E"/>
<path fill-rule="evenodd" clip-rule="evenodd" d="M61.186 45.8686C61.2125 46.0805 61.0621 46.2738 60.8502 46.3003C60.2214 46.3789 59.5925 46.4313 59.0151 46.4575C58.8018 46.4672 58.6209 46.3021 58.6112 46.0888C58.6015 45.8754 58.7666 45.6946 58.98 45.6849C59.537 45.6596 60.1456 45.6089 60.7543 45.5328C60.9662 45.5063 61.1595 45.6566 61.186 45.8686Z" fill="#1E247E"/>
<path d="M80.989 45.0142C81.5304 46.1228 82.5101 47.2571 83.6187 48.1079C84.2117 48.572 84.6757 49.1392 85.0109 49.8095" fill="white"/>
<path fill-rule="evenodd" clip-rule="evenodd" d="M80.8192 44.6665C81.0111 44.5728 81.2426 44.6524 81.3363 44.8443C81.8468 45.8894 82.7835 46.9794 83.854 47.801L83.8554 47.8021L83.8569 47.8032C84.4948 48.3024 84.9957 48.9145 85.3566 49.6364C85.4521 49.8274 85.3747 50.0597 85.1837 50.1552C84.9926 50.2507 84.7603 50.1733 84.6648 49.9823C84.3557 49.364 83.929 48.8421 83.3816 48.4134C82.2355 47.5335 81.2135 46.3552 80.6414 45.1837C80.5476 44.9918 80.6272 44.7602 80.8192 44.6665Z" fill="#1E247E"/>
<path fill-rule="evenodd" clip-rule="evenodd" d="M44.5343 64.6885C44.746 64.6601 44.9406 64.8087 44.969 65.0204C45.2436 67.0675 46.0427 68.9663 47.2177 70.5664C47.3442 70.7385 47.3071 70.9805 47.135 71.107C46.9628 71.2334 46.7208 71.1963 46.5944 71.0242C45.3459 69.3242 44.495 67.3042 44.2025 65.1232C44.1741 64.9116 44.3226 64.7169 44.5343 64.6885Z" fill="#1E247E"/>
<path d="M54.4084 62.3648C53.6608 63.0609 52.4748 62.9835 51.7787 62.2359L50.0256 60.3023C49.3295 59.5546 49.4069 58.3687 50.1545 57.6726C50.9022 56.9765 52.0881 57.0538 52.7842 57.8015L54.5373 59.7351C55.2334 60.5085 55.1819 61.6945 54.4084 62.3648Z" fill="#FCF5F2"/>
<path fill-rule="evenodd" clip-rule="evenodd" d="M52.3098 58.2381C51.8407 57.7372 51.0638 57.7068 50.5937 58.1445C50.0901 58.6133 50.0588 59.3923 50.4973 59.8633L50.5002 59.8664L52.253 61.7997C52.7221 62.3005 53.4991 62.3309 53.9692 61.8932L53.9776 61.8854L53.9863 61.8779C54.4733 61.4558 54.5251 60.6861 54.059 60.1673C54.0587 60.167 54.0585 60.1667 54.0582 60.1665L52.3098 58.2381ZM49.7153 57.2011C50.7396 56.2474 52.3325 56.3707 53.2559 57.3625L53.2588 57.3656L55.0164 59.3041C55.9391 60.3294 55.8903 61.9251 54.8391 62.8445C53.8145 63.7897 52.2278 63.6643 51.307 62.6753L51.3041 62.6721L49.5507 60.7383C48.6004 59.7139 48.7246 58.1234 49.7153 57.2011Z" fill="#1E247E"/>
<path d="M80.7567 47.9532C82.4583 49.2681 83.4895 51.3048 83.4895 53.4446V55.1204C83.4895 59.6063 82.2263 64.0149 79.7255 67.7274C78.2044 69.9704 76.1935 72.1618 73.5638 73.554C71.9138 74.4305 70.006 74.972 67.8403 75.0235H67.6599C65.3911 74.9977 63.406 74.4306 61.6528 73.5024C59.513 72.3681 57.7856 70.7181 56.3935 68.9649C53.2997 65.0204 51.7271 60.0704 51.7271 55.0688V54.0634C51.7271 51.3048 53.97 48.7782 56.7028 48.3915C60.4669 47.8759 68.5106 48.7009 75.1106 43.0806C75.7036 42.5649 76.606 42.7712 76.9411 43.4673C77.7403 45.0657 79.1325 46.7157 80.7567 47.9532Z" fill="#FCF5F2"/>
<path fill-rule="evenodd" clip-rule="evenodd" d="M76.2442 43.8027C76.1227 43.5502 75.8127 43.495 75.6182 43.6641L75.6151 43.6668L75.6121 43.6694C70.0702 48.3886 63.4616 48.7443 59.2819 48.9693C58.3126 49.0214 57.4739 49.0666 56.8095 49.1575C54.4497 49.4924 52.5005 51.6999 52.5005 54.0633V55.0688C52.5005 59.9107 54.0231 64.6884 57.0005 68.4856C58.3481 70.1822 59.9969 71.749 62.0147 72.8188C63.664 73.692 65.5273 74.2251 67.6644 74.25H67.831C69.8709 74.2001 71.6579 73.6906 73.2009 72.8709L73.2019 72.8704C75.6812 71.5578 77.6057 69.475 79.085 67.2938C81.4937 63.7173 82.7161 59.4617 82.7161 55.1203V53.4446C82.7161 51.5533 81.8032 49.7402 80.2858 48.5667C78.579 47.2658 77.1066 45.5276 76.2493 43.8131L76.2467 43.8079L76.2442 43.8027ZM77.6351 43.1257C77.0847 41.9921 75.5962 41.6371 74.6065 42.4939C69.5164 46.8268 63.6175 47.1619 59.4118 47.4008C58.3532 47.461 57.402 47.515 56.5979 47.6251L56.5945 47.6256C53.4894 48.065 50.9536 50.9101 50.9536 54.0633V55.0688C50.9536 60.2291 52.5758 65.3506 55.7849 69.4422L55.7863 69.444L55.7878 69.4459C57.2243 71.2548 59.0296 72.9871 61.2906 74.1857L61.2909 74.1859C63.1468 75.1684 65.2524 75.7696 67.6511 75.7968L67.6555 75.7969H67.8495L67.8587 75.7967C70.1459 75.7422 72.1711 75.1694 73.9256 74.2375C76.7055 72.7658 78.8028 70.466 80.3656 68.1615L80.367 68.1595C82.9592 64.3113 84.263 59.7503 84.263 55.1203V53.4446C84.263 51.057 83.1142 48.7974 81.2296 47.3411L81.2276 47.3395L81.2255 47.3379C79.6863 46.1652 78.3763 44.6061 77.6351 43.1257Z" fill="#1E247E"/>
<path d="M61.1115 58.4719C62.6068 58.4719 62.6068 56.1516 61.1115 56.1516C59.6162 56.1516 59.6162 58.4719 61.1115 58.4719Z" fill="#1E247E"/>
<path d="M74.0795 58.4719C75.5748 58.4719 75.5748 56.1516 74.0795 56.1516C72.5842 56.1516 72.5842 58.4719 74.0795 58.4719Z" fill="#1E247E"/>
<path fill-rule="evenodd" clip-rule="evenodd" d="M69.5737 60.015C69.7609 60.1179 69.8291 60.3531 69.7262 60.5402C69.3587 61.2083 68.5123 61.6429 67.5827 61.6429C66.6779 61.6429 65.8704 61.2351 65.4768 60.6119C65.3627 60.4313 65.4167 60.1925 65.5973 60.0784C65.7778 59.9644 66.0167 60.0183 66.1307 60.1989C66.3559 60.5554 66.889 60.8695 67.5827 60.8695C68.3031 60.8695 68.8488 60.5306 69.0485 60.1675C69.1514 59.9803 69.3866 59.9121 69.5737 60.015Z" fill="#1E247E"/>
<path fill-rule="evenodd" clip-rule="evenodd" d="M58.5077 53.8569L58.2894 53.3898C58.0314 53.5104 57.92 53.8173 58.0406 54.0753C58.161 54.3329 58.4673 54.4443 58.725 54.3245M58.7251 54.3245L58.7273 54.3235C58.73 54.3223 58.7348 54.3201 58.7418 54.317C58.7557 54.3109 58.7781 54.3013 58.8082 54.2891C58.8686 54.2645 58.96 54.2293 59.0776 54.1897C59.3133 54.1102 59.6508 54.0143 60.0519 53.9504C60.8589 53.8219 61.8868 53.8285 62.8662 54.3181C63.1209 54.4455 63.4306 54.3422 63.5579 54.0875C63.6853 53.8328 63.5821 53.5231 63.3273 53.3957C62.0895 52.7768 60.8229 52.7834 59.8897 52.932C59.4206 53.0067 59.0265 53.1186 58.7483 53.2124C58.6088 53.2594 58.4976 53.3021 58.4196 53.3338C58.3806 53.3497 58.3498 53.3629 58.3279 53.3725C58.317 53.3773 58.3082 53.3812 58.3018 53.3841L58.2938 53.3877L58.2912 53.389L58.2902 53.3894L58.2897 53.3896C58.2895 53.3897 58.2894 53.3898 58.5077 53.8569" fill="#1E247E"/>
<path fill-rule="evenodd" clip-rule="evenodd" d="M76.8757 53.3896C76.8759 53.3897 76.8761 53.3898 76.6585 53.8553L76.8761 53.3898C77.1341 53.5104 77.2455 53.8173 77.1249 54.0753C77.0045 54.3329 76.6982 54.4443 76.4405 54.3245M76.4398 54.3242L76.4381 54.3235C76.4355 54.3223 76.4306 54.3201 76.4237 54.317C76.4097 54.3109 76.3874 54.3013 76.3572 54.2891C76.2968 54.2645 76.2054 54.2293 76.0879 54.1897C75.8521 54.1102 75.5147 54.0143 75.1136 53.9504C74.3066 53.8219 73.2786 53.8285 72.2993 54.3181C72.0446 54.4455 71.7349 54.3422 71.6075 54.0875C71.4802 53.8328 71.5834 53.5231 71.8381 53.3957C73.076 52.7768 74.3426 52.7834 75.2758 52.932C75.7448 53.0067 76.1389 53.1186 76.4172 53.2124C76.5566 53.2594 76.6679 53.3021 76.7458 53.3338C76.7849 53.3497 76.8156 53.3629 76.8375 53.3725C76.8485 53.3773 76.8572 53.3812 76.8637 53.3841L76.8716 53.3877L76.8743 53.389L76.8757 53.3896" fill="#1E247E"/>
<path d="M58.6106 62.9062C59.9918 62.9062 61.1114 62.156 61.1114 61.2305C61.1114 60.305 59.9918 59.5547 58.6106 59.5547C57.2295 59.5547 56.1099 60.305 56.1099 61.2305C56.1099 62.156 57.2295 62.9062 58.6106 62.9062Z" fill="#EAB8B1"/>
<path d="M76.5801 62.9062C77.9613 62.9062 79.0809 62.156 79.0809 61.2305C79.0809 60.305 77.9613 59.5547 76.5801 59.5547C75.199 59.5547 74.0793 60.305 74.0793 61.2305C74.0793 62.156 75.199 62.9062 76.5801 62.9062Z" fill="#EAB8B1"/>
<path d="M70.9857 65.2782L70.4701 66.5673L70.4185 66.6962C70.3154 66.954 70.1607 67.2118 69.9287 67.5728C69.8513 67.6759 69.774 67.779 69.6966 67.8821C69.4904 68.1142 69.2068 68.3462 68.8974 68.5267C68.8716 68.5524 68.8459 68.5524 68.7943 68.5782C68.6654 68.6556 68.5365 68.7071 68.4076 68.7587C68.2787 68.8103 68.124 68.8618 67.9693 68.9134C67.8404 68.9649 67.7115 68.9649 67.5826 68.9649C67.4537 68.9649 67.3248 68.9392 67.1959 68.9134C67.0412 68.8618 66.8865 68.8103 66.7576 68.7587C66.6287 68.7071 66.4998 68.6298 66.3709 68.5782C66.3451 68.5524 66.3193 68.5524 66.2677 68.5267C65.9584 68.3462 65.6748 68.1142 65.4685 67.8821C65.3654 67.779 65.2881 67.6759 65.2107 67.547C65.0045 67.2634 64.8498 66.954 64.7466 66.6962L64.1795 65.2782C64.0763 65.0204 64.2568 64.7368 64.5404 64.7368H70.6248C70.9084 64.7368 71.0888 65.0204 70.9857 65.2782Z" fill="#DC9695"/>
<path fill-rule="evenodd" clip-rule="evenodd" d="M64.7246 65.2524L65.2255 66.5047C65.3167 66.7328 65.4523 67.0024 65.6278 67.2437L65.6412 67.2621L65.6529 67.2817C65.7123 67.3807 65.7646 67.4489 65.8332 67.5175L65.8439 67.5282L65.854 67.5396C66.0164 67.7223 66.2474 67.9142 66.5035 68.0671C66.5077 68.0686 66.5141 68.0711 66.5206 68.0737C66.5381 68.0807 66.573 68.0951 66.6127 68.1185C66.6166 68.1208 66.6206 68.1232 66.6245 68.1257C66.686 68.1528 66.743 68.1813 66.7882 68.2039L66.7949 68.2073C66.8631 68.2414 66.9081 68.2635 66.9492 68.2799C67.0539 68.3218 67.1822 68.3652 67.3283 68.414C67.4474 68.4375 67.519 68.4493 67.5827 68.4493C67.6513 68.4493 67.6901 68.4489 67.7247 68.4454C67.7549 68.4424 67.7696 68.4379 67.7779 68.4346L67.792 68.429L67.8063 68.4242C67.9651 68.3713 68.1042 68.3247 68.2162 68.2799C68.3493 68.2267 68.4408 68.1891 68.5291 68.1361L68.5461 68.1259L68.5638 68.117C68.5858 68.106 68.6056 68.0972 68.6224 68.0902L68.6377 68.0813C68.8964 67.9304 69.131 67.7386 69.2978 67.5546L69.505 67.2783C69.7315 66.9255 69.8583 66.7085 69.9399 66.5047C69.9399 66.5047 69.9399 66.5047 69.9399 66.5047L69.9914 66.3758L70.4408 65.2524H64.7246ZM63.7008 65.4697C63.4688 64.8897 63.8745 64.2212 64.5405 64.2212H70.6249C71.2908 64.2212 71.6966 64.8897 71.4645 65.4697L70.9489 66.7588L70.8974 66.8877C70.7738 67.1965 70.5938 67.4918 70.3625 67.8516L70.3524 67.8672L70.0964 68.2087L70.0821 68.2247C69.8452 68.4912 69.5317 68.7487 69.192 68.9516C69.1747 68.9643 69.1571 68.9759 69.1392 68.9864C69.0995 69.0097 69.0646 69.0242 69.0471 69.0312C69.0405 69.0338 69.034 69.0363 69.0298 69.0379C68.8756 69.1269 68.7259 69.1868 68.6099 69.2332L68.5992 69.2374C68.4572 69.2942 68.292 69.3493 68.1445 69.3985C67.9273 69.4813 67.7187 69.4809 67.6009 69.4806C67.5945 69.4806 67.5885 69.4806 67.5827 69.4806C67.4018 69.4806 67.2294 69.446 67.1101 69.4221C67.1049 69.421 67.0998 69.42 67.0948 69.419L67.0633 69.4127L67.024 69.3996C66.8757 69.3501 66.7091 69.2946 66.5662 69.2374C66.4815 69.2036 66.4005 69.1631 66.3404 69.133L66.3337 69.1296C66.2655 69.0955 66.2205 69.0734 66.1794 69.057L66.0812 69.0177L66.0644 69.0009C66.0558 68.9969 66.0467 68.9926 66.0372 68.9878L66.0224 68.9804L66.008 68.972C65.6598 68.7689 65.337 68.5074 65.0931 68.2358C64.9666 68.1075 64.87 67.9784 64.7806 67.832C64.5503 67.5113 64.3808 67.1698 64.268 66.8877L63.7008 65.4697C63.7008 65.4697 63.7008 65.4697 63.7008 65.4697Z" fill="#1E247E"/>
<path d="M69.671 67.9079C69.6194 67.9853 69.4905 68.1142 69.3874 68.1915C69.1812 68.372 68.9491 68.5009 68.6913 68.6556C68.6655 68.6813 68.614 68.7071 68.5882 68.7071C68.4851 68.7587 68.3819 68.7845 68.2788 68.836C68.1757 68.8876 68.0468 68.9134 67.9179 68.9649C67.8147 68.9907 67.7116 69.0165 67.6085 69.0165C67.5054 69.0165 67.4022 68.9907 67.2991 68.9649C67.1702 68.9392 67.0413 68.8876 66.9382 68.836C66.8351 68.7845 66.7319 68.7587 66.6288 68.7071C66.603 68.6813 66.5515 68.6813 66.5257 68.6556C66.2679 68.5009 65.9843 68.3462 65.8038 68.1657C65.7265 68.0884 65.6233 68.0368 65.5718 67.9337C65.7265 67.4181 66.3452 66.9282 66.9124 66.9282C67.2476 66.9282 67.5827 67.0571 67.789 67.2892C67.8147 67.3149 67.8148 67.3149 67.8405 67.2892C68.021 67.1603 68.2273 67.0829 68.4851 67.0829C68.9491 67.0829 69.5163 67.4696 69.671 67.9079Z" fill="#EECED1"/>
<path fill-rule="evenodd" clip-rule="evenodd" d="M66.034 67.8517C66.0478 67.864 66.0625 67.8776 66.0772 67.8923C66.1931 68.0082 66.3706 68.1135 66.5968 68.2478C66.6367 68.2715 66.6782 68.2962 66.7212 68.3219C66.7334 68.3263 66.7493 68.3324 66.7654 68.3398C66.7815 68.3471 66.8028 68.3577 66.8265 68.3729C66.8509 68.3837 66.8792 68.3945 66.9192 68.4095C66.921 68.4101 66.9227 68.4108 66.9245 68.4115C66.9732 68.4297 67.0411 68.4552 67.1111 68.4901C67.1948 68.532 67.2902 68.5688 67.3749 68.5857L67.3839 68.5875L67.3928 68.5898C67.5051 68.6178 67.5612 68.6298 67.6084 68.6298C67.6522 68.6298 67.7038 68.6195 67.8006 68.5956C67.8624 68.5721 67.9228 68.5532 67.969 68.5388C67.9769 68.5363 67.9844 68.5339 67.9915 68.5317C68.0535 68.5121 68.0847 68.5007 68.1058 68.4901C68.1757 68.4552 68.2436 68.4297 68.2923 68.4115L68.2976 68.4095C68.3517 68.3892 68.3846 68.3765 68.4152 68.3612L68.4968 68.3204H68.4982C68.5332 68.2994 68.5669 68.2794 68.5994 68.26C68.8185 68.1295 68.9829 68.0316 69.1327 67.9005L69.1436 67.8909L69.1553 67.8821C69.1675 67.873 69.181 67.8621 69.1954 67.8499C69.1386 67.7808 69.0642 67.7114 68.9741 67.6492C68.8006 67.5292 68.6181 67.4696 68.485 67.4696C68.3235 67.4696 68.1998 67.5128 68.0854 67.5899C68.0801 67.5946 68.0738 67.6 68.0667 67.6056C68.0441 67.6237 67.9534 67.6952 67.8147 67.6952C67.6759 67.6952 67.5852 67.6237 67.5626 67.6056C67.5472 67.5933 67.5353 67.5821 67.5296 67.5766C67.5241 67.5713 67.5187 67.5659 67.516 67.5632L67.5074 67.5546L67.4999 67.5461C67.3806 67.4119 67.1594 67.3149 66.9123 67.3149C66.7348 67.3149 66.5186 67.395 66.3219 67.545C66.2002 67.6379 66.1024 67.7452 66.034 67.8517ZM65.8527 66.9302C66.1459 66.7064 66.5227 66.5415 66.9123 66.5415C67.2393 66.5415 67.5817 66.6375 67.8557 66.8332C68.0407 66.7462 68.2485 66.6962 68.485 66.6962C68.8159 66.6962 69.1491 66.8299 69.4139 67.0129C69.6782 67.1956 69.9235 67.4615 70.0356 67.7792L70.0999 67.9615L69.9927 68.1224C69.9121 68.2434 69.7554 68.3966 69.6314 68.4917C69.427 68.6685 69.1998 68.8032 68.9885 68.9286C68.9645 68.9429 68.9407 68.957 68.9171 68.9711C68.88 69.0001 68.8429 69.0218 68.8126 69.0369C68.795 69.0457 68.7594 69.0629 68.7124 69.0761C68.6603 69.0995 68.6118 69.1177 68.5745 69.1317L68.5692 69.1337C68.5151 69.154 68.4823 69.1666 68.4517 69.1819C68.3696 69.2229 68.2848 69.2502 68.2244 69.2693C68.2149 69.2722 68.2059 69.2751 68.1972 69.2778C68.1428 69.2949 68.1024 69.3076 68.0614 69.324L68.0371 69.3337L68.0116 69.3401C68.0073 69.3412 68.0028 69.3423 67.9982 69.3435C67.9037 69.3672 67.7601 69.4032 67.6084 69.4032C67.4567 69.4032 67.3132 69.3672 67.2186 69.3435C67.2169 69.343 67.2151 69.3426 67.2134 69.3421C67.044 69.307 66.8854 69.242 66.7652 69.1819C66.7346 69.1666 66.7017 69.154 66.6476 69.1337C66.6459 69.133 66.6441 69.1324 66.6423 69.1317C66.5936 69.1134 66.5258 69.088 66.4558 69.053L66.4261 69.0382C66.4152 69.0341 66.4021 69.0289 66.3889 69.0229C66.3679 69.0134 66.338 68.9982 66.3055 68.9745C66.2788 68.9587 66.2508 68.9421 66.2217 68.925C66.002 68.7957 65.7221 68.631 65.5303 68.4392C65.5175 68.4264 65.5111 68.4214 65.4981 68.4114C65.4854 68.4015 65.4662 68.3867 65.4283 68.3546C65.3724 68.3073 65.2865 68.2281 65.2258 68.1066L65.1572 67.9695L65.2013 67.8226C65.3075 67.4684 65.5599 67.1536 65.8527 66.9302Z" fill="#1E247E"/>
<path d="M67.7632 67.2634C67.7632 67.2634 68.021 67.4697 68.1499 67.8822L67.7632 67.2634Z" fill="#CB7272"/>
<path fill-rule="evenodd" clip-rule="evenodd" d="M67.4612 67.0219C67.5946 66.8551 67.838 66.828 68.0048 66.9615L67.7632 67.2634C68.0048 66.9615 68.0049 66.9616 68.005 66.9616L68.0052 66.9618L68.0057 66.9622L68.0067 66.963L68.009 66.9649L68.0147 66.9696C68.0191 66.9733 68.0243 66.9778 68.0305 66.9832C68.0427 66.994 68.0584 67.0085 68.0768 67.0265C68.1135 67.0627 68.1612 67.1138 68.213 67.18C68.3163 67.3123 68.4381 67.5079 68.519 67.7668C68.5827 67.9707 68.4691 68.1876 68.2653 68.2513C68.0614 68.315 67.8445 68.2014 67.7808 67.9975C67.7328 67.844 67.6612 67.7302 67.6035 67.6562C67.5747 67.6193 67.5498 67.5931 67.5342 67.5777C67.5264 67.57 67.521 67.5651 67.5186 67.563C67.5183 67.5627 67.518 67.5625 67.5178 67.5623C67.3544 67.4283 67.3288 67.1874 67.4612 67.0219Z" fill="#1E247E"/>
<path d="M84.031 121.12H51.1599C47.5505 121.12 44.5857 118.155 44.5857 114.546V93.9468C44.5857 84.4593 52.2943 76.7507 61.7818 76.7507H73.4349C82.9224 76.7507 90.631 84.4593 90.631 93.9468V114.546C90.6052 118.155 87.6662 121.12 84.031 121.12Z" fill="#D3D5E7"/>
<path fill-rule="evenodd" clip-rule="evenodd" d="M61.7818 77.5242C52.7214 77.5242 45.3591 84.8865 45.3591 93.9468V114.546C45.3591 117.728 47.9777 120.347 51.1599 120.347H84.031C87.2351 120.347 89.8334 117.732 89.8576 114.543V93.9468C89.8576 84.8865 82.4953 77.5242 73.4349 77.5242H61.7818ZM43.8123 93.9468C43.8123 84.0322 51.8671 75.9773 61.7818 75.9773H73.4349C83.3496 75.9773 91.4044 84.0322 91.4044 93.9468V114.549L91.4044 114.552C91.3756 118.581 88.0963 121.894 84.031 121.894H51.1599C47.1234 121.894 43.8123 118.583 43.8123 114.546V93.9468Z" fill="#1E247E"/>
<path d="M73.5639 73.554V78.1946C73.5639 78.3493 73.4865 78.504 73.3834 78.5813C68.124 82.861 62.942 79.3806 61.885 78.5813C61.7561 78.4782 61.6787 78.3235 61.6787 78.1688V73.5024C63.4061 74.4048 65.3912 74.9978 67.6857 75.0235H67.8662C70.0061 74.972 71.8881 74.4048 73.5639 73.554Z" fill="#FCF5F2"/>
<path fill-rule="evenodd" clip-rule="evenodd" d="M60.9053 72.2258L62.0368 72.8169C63.667 73.6685 65.5319 74.2252 67.6902 74.2501H67.8567C69.8616 74.2003 71.6281 73.6694 73.2137 72.8644L74.3373 72.294V78.1947C74.3373 78.564 74.1685 78.9507 73.863 79.1883C71.0297 81.4896 68.1766 81.7181 65.9003 81.2431C63.6557 80.7748 61.9893 79.6299 61.4185 79.1983L61.4101 79.1919L61.4018 79.1853C61.1036 78.9468 60.9053 78.5761 60.9053 78.1689V72.2258ZM62.4521 74.7199V78.0392C63.0184 78.4524 64.4093 79.3518 66.2163 79.7288C68.0805 80.1178 70.4039 79.9581 72.7904 78.0657V74.7591C71.3141 75.3649 69.6865 75.7534 67.8848 75.7968L67.8755 75.797H67.6814L67.6771 75.797C65.7353 75.7751 64.0012 75.3687 62.4521 74.7199Z" fill="#1E247E"/>
<path d="M90.2961 58.6523V60.7148C90.2961 63.6281 87.9242 66 85.0109 66H81.0664V65.3813C82.6648 62.2102 83.4641 58.7039 83.4641 55.1203V53.3672H85.0109C87.9242 53.3672 90.2961 55.7391 90.2961 58.6523Z" fill="#D3D5E7"/>
<path fill-rule="evenodd" clip-rule="evenodd" d="M82.6906 52.5938H85.0109C88.3514 52.5938 91.0695 55.3119 91.0695 58.6523V60.7148C91.0695 64.0553 88.3514 66.7734 85.0109 66.7734H80.293V65.1973L80.3757 65.0331C81.9173 61.9749 82.6906 58.5886 82.6906 55.1203V52.5938ZM84.2375 54.1406V55.1203C84.2375 58.6314 83.4941 62.077 82.0028 65.2266H85.0109C87.4971 65.2266 89.5227 63.201 89.5227 60.7148V58.6523C89.5227 56.1662 87.4971 54.1406 85.0109 54.1406H84.2375Z" fill="#1E247E"/>
<path fill-rule="evenodd" clip-rule="evenodd" d="M83.9795 65.2266C84.4067 65.2266 84.753 65.5728 84.753 66V67.1602C84.753 68.9022 83.3497 70.3055 81.6077 70.3055H71.6819C71.2547 70.3055 70.9084 69.9592 70.9084 69.532C70.9084 69.1049 71.2547 68.7586 71.6819 68.7586H81.6077C82.4953 68.7586 83.2061 68.0478 83.2061 67.1602V66C83.2061 65.5728 83.5524 65.2266 83.9795 65.2266Z" fill="#1E247E"/>
<path d="M72.3523 70.6665H71.2179C70.5991 70.6665 70.0835 70.1508 70.0835 69.5321C70.0835 68.9133 70.5991 68.3977 71.2179 68.3977H72.3523C72.971 68.3977 73.4866 68.9133 73.4866 69.5321C73.4866 70.1508 72.971 70.6665 72.3523 70.6665Z" fill="#D3D5E7"/>
<path fill-rule="evenodd" clip-rule="evenodd" d="M71.2179 69.1711C71.0263 69.1711 70.8569 69.3405 70.8569 69.5321C70.8569 69.7237 71.0263 69.893 71.2179 69.893H72.3523C72.5438 69.893 72.7132 69.7237 72.7132 69.5321C72.7132 69.3405 72.5438 69.1711 72.3523 69.1711H71.2179ZM69.3101 69.5321C69.3101 68.4862 70.172 67.6243 71.2179 67.6243H72.3523C73.3982 67.6243 74.2601 68.4862 74.2601 69.5321C74.2601 70.578 73.3982 71.4399 72.3523 71.4399H71.2179C70.172 71.4399 69.3101 70.578 69.3101 69.5321Z" fill="#1E247E"/>
<path d="M48.4014 16.7837V32.4587C48.4014 34.7791 46.5194 36.6353 44.2249 36.6353V42.2041C44.2249 42.5134 43.8897 42.6939 43.6319 42.5392L34.3249 36.6353H15.6592C13.3389 36.6353 11.4827 34.7533 11.4827 32.4587V16.7837C11.4827 14.4634 13.3647 12.6072 15.6592 12.6072H44.2249C46.5452 12.6072 48.4014 14.4634 48.4014 16.7837Z" fill="#D3D5E7"/>
<path d="M46.4679 14.6696V29.7774C46.4679 31.9946 44.6632 33.7993 42.446 33.7993V39.1618C42.446 39.4454 42.1108 39.6258 41.8788 39.4711L32.9069 33.7993H14.9374C12.7202 33.7993 10.9155 31.9946 10.9155 29.7774V14.6696C10.9155 12.4524 12.7202 10.6477 14.9374 10.6477H42.446C44.6632 10.6477 46.4679 12.4524 46.4679 14.6696Z" fill="white"/>
<path fill-rule="evenodd" clip-rule="evenodd" d="M14.9374 11.2922C13.0762 11.2922 11.5601 12.8084 11.5601 14.6696V29.7774C11.5601 31.6386 13.0762 33.1547 14.9374 33.1547H33.0936L41.8015 38.6597V33.1547H42.446C44.3072 33.1547 45.8233 31.6386 45.8233 29.7774V14.6696C45.8233 12.8084 44.3072 11.2922 42.446 11.2922H14.9374ZM10.271 14.6696C10.271 12.0964 12.3642 10.0032 14.9374 10.0032H42.446C45.0192 10.0032 47.1124 12.0964 47.1124 14.6696V29.7774C47.1124 32.1319 45.3598 34.0846 43.0905 34.3995V39.1618C43.0905 39.9461 42.1979 40.4496 41.5294 40.0128L32.7203 34.4438H14.9374C12.3642 34.4438 10.271 32.3505 10.271 29.7774V14.6696Z" fill="#1E247E"/>
<path fill-rule="evenodd" clip-rule="evenodd" d="M14.2156 25.2913C14.2156 25.0065 14.4464 24.7756 14.7312 24.7756H21.0218C21.3066 24.7756 21.5375 25.0065 21.5375 25.2913C21.5375 25.576 21.3066 25.8069 21.0218 25.8069H14.7312C14.4464 25.8069 14.2156 25.576 14.2156 25.2913Z" fill="#1E247E"/>
<path fill-rule="evenodd" clip-rule="evenodd" d="M14.2156 22.8938C14.2156 22.609 14.4464 22.3782 14.7312 22.3782H27.3125C27.5972 22.3782 27.8281 22.609 27.8281 22.8938C27.8281 23.1786 27.5972 23.4094 27.3125 23.4094H14.7312C14.4464 23.4094 14.2156 23.1786 14.2156 22.8938Z" fill="#1E247E"/>
<path fill-rule="evenodd" clip-rule="evenodd" d="M14.2156 20.4961C14.2156 20.2113 14.4464 19.9805 14.7312 19.9805H27.3125C27.5972 19.9805 27.8281 20.2113 27.8281 20.4961C27.8281 20.7809 27.5972 21.0117 27.3125 21.0117H14.7312C14.4464 21.0117 14.2156 20.7809 14.2156 20.4961Z" fill="#1E247E"/>
<path fill-rule="evenodd" clip-rule="evenodd" d="M14.2156 18.0984C14.2156 17.8136 14.4464 17.5828 14.7312 17.5828H27.3125C27.5972 17.5828 27.8281 17.8136 27.8281 18.0984C27.8281 18.3832 27.5972 18.614 27.3125 18.614H14.7312C14.4464 18.614 14.2156 18.3832 14.2156 18.0984Z" fill="#1E247E"/>
<path d="M40.7702 29.8031H33.603C32.4944 29.8031 31.592 28.9008 31.592 27.7922V17.3508C31.592 16.2422 32.4944 15.3398 33.603 15.3398H40.7702C41.8788 15.3398 42.7811 16.2422 42.7811 17.3508V27.7922C42.8069 28.9008 41.9045 29.8031 40.7702 29.8031Z" fill="#ECECEE"/>
<path d="M39.8164 27.6118H34.8406C34.6602 27.6118 34.5312 27.4829 34.5312 27.3024V25.2399C34.5312 23.7704 35.7172 22.5845 37.1867 22.5845H37.4961C38.9656 22.5845 40.1516 23.7704 40.1516 25.2399V27.3024C40.1258 27.4571 39.9711 27.6118 39.8164 27.6118Z" fill="#DA867D"/>
<path fill-rule="evenodd" clip-rule="evenodd" d="M37.1867 23.1001C36.002 23.1001 35.0469 24.0552 35.0469 25.2399V27.0962H39.6359V25.2399C39.6359 24.0552 38.6809 23.1001 37.4961 23.1001H37.1867ZM34.0156 25.2399C34.0156 23.4856 35.4324 22.0688 37.1867 22.0688H37.4961C39.2504 22.0688 40.6672 23.4856 40.6672 25.2399V27.3451L40.6602 27.3872C40.6258 27.5936 40.515 27.7681 40.3869 27.8895C40.2604 28.0093 40.0624 28.1274 39.8164 28.1274H34.8406C34.3754 28.1274 34.0156 27.7677 34.0156 27.3024V25.2399Z" fill="#1E247E"/>
<path d="M37.3156 20.7797C38.1415 20.7797 38.8109 20.1102 38.8109 19.2844C38.8109 18.4585 38.1415 17.7891 37.3156 17.7891C36.4898 17.7891 35.8203 18.4585 35.8203 19.2844C35.8203 20.1102 36.4898 20.7797 37.3156 20.7797Z" fill="#FCF5F2"/>
<path fill-rule="evenodd" clip-rule="evenodd" d="M37.3156 18.3047C36.7746 18.3047 36.3359 18.7433 36.3359 19.2844C36.3359 19.8254 36.7746 20.2641 37.3156 20.2641C37.8567 20.2641 38.2953 19.8254 38.2953 19.2844C38.2953 18.7433 37.8567 18.3047 37.3156 18.3047ZM35.3047 19.2844C35.3047 18.1738 36.205 17.2734 37.3156 17.2734C38.4262 17.2734 39.3266 18.1738 39.3266 19.2844C39.3266 20.395 38.4262 21.2953 37.3156 21.2953C36.205 21.2953 35.3047 20.395 35.3047 19.2844Z" fill="#1E247E"/>
<path fill-rule="evenodd" clip-rule="evenodd" d="M14.346 12.5456C14.4511 12.7316 14.3856 12.9675 14.1997 13.0726C13.687 13.3623 13.2863 13.8299 13.0858 14.4093C13.0159 14.6111 12.7956 14.7181 12.5938 14.6482C12.392 14.5784 12.285 14.3581 12.3549 14.1563C12.6184 13.3951 13.1458 12.7798 13.8191 12.3992C14.005 12.2942 14.241 12.3597 14.346 12.5456Z" fill="#1E247E"/>
<path d="M98.9327 121.43H36.2842C33.3452 121.43 30.9475 119.032 30.9475 116.093V114.237C30.9475 114.108 31.0506 114.005 31.1795 114.005H104.037C104.166 114.005 104.269 114.108 104.269 114.237V116.093C104.269 119.032 101.872 121.43 98.9327 121.43Z" fill="#D3D5E7"/>
<path fill-rule="evenodd" clip-rule="evenodd" d="M31.7209 114.778V116.093C31.7209 118.605 33.7723 120.656 36.2842 120.656H98.9327C101.445 120.656 103.496 118.605 103.496 116.093V114.778H31.7209ZM30.1741 114.237C30.1741 113.681 30.6235 113.231 31.1795 113.231H104.037C104.593 113.231 105.043 113.681 105.043 114.237V116.093C105.043 119.459 102.299 122.203 98.9327 122.203H36.2842C32.918 122.203 30.1741 119.459 30.1741 116.093V114.237Z" fill="#1E247E"/>
<path d="M93.4412 121.43H41.9818C39.3005 121.43 37.1091 119.238 37.1091 116.557V85.6454C37.1091 83.454 38.888 81.675 41.0794 81.675H94.3435C96.5349 81.675 98.3138 83.454 98.3138 85.6454V116.557C98.3138 119.238 96.1224 121.43 93.4412 121.43Z" fill="#69AEF8"/>
<path fill-rule="evenodd" clip-rule="evenodd" d="M41.0794 82.4485C39.3152 82.4485 37.8826 83.8811 37.8826 85.6454V116.557C37.8826 118.811 39.7277 120.656 41.9818 120.656H93.4412C95.6953 120.656 97.5404 118.811 97.5404 116.557V85.6454C97.5404 83.8811 96.1078 82.4485 94.3435 82.4485H41.0794ZM36.3357 85.6454C36.3357 83.0268 38.4609 80.9016 41.0794 80.9016H94.3435C96.9621 80.9016 99.0873 83.0268 99.0873 85.6454V116.557C99.0873 119.665 96.5496 122.203 93.4412 122.203H41.9818C38.8734 122.203 36.3357 119.665 36.3357 116.557V85.6454Z" fill="#1E247E"/>
<path opacity="0.4" d="M72.0944 102.094C72.0944 103.898 71.0116 105.445 69.4647 106.09C69.5679 105.858 69.6194 105.6 69.6194 105.342C69.6194 104.234 68.7171 103.331 67.6085 103.331C66.4999 103.331 65.5976 104.234 65.5976 105.342C65.5976 105.548 65.6233 105.755 65.7007 105.935C64.3085 105.213 63.3804 103.744 63.3804 102.068C63.3804 99.6445 65.3397 97.7109 67.7374 97.7109C70.1351 97.7109 72.0944 99.6703 72.0944 102.094Z" fill="white"/>
<path opacity="0.7" d="M69.5937 105.342C69.5937 105.6 69.5421 105.858 69.439 106.09C68.8976 106.322 68.3304 106.451 67.7116 106.451C66.964 106.451 66.2937 106.27 65.6749 105.935C65.6233 105.755 65.5718 105.548 65.5718 105.342C65.5718 104.234 66.4741 103.331 67.5827 103.331C68.7171 103.357 69.5937 104.234 69.5937 105.342Z" fill="white"/>
<path fill-rule="evenodd" clip-rule="evenodd" d="M92.9514 83.4282C92.9514 83.2146 93.1246 83.0415 93.3381 83.0415C95.0212 83.0415 96.4061 84.4264 96.4061 86.1095C96.4061 86.3231 96.233 86.4962 96.0194 86.4962C95.8058 86.4962 95.6327 86.3231 95.6327 86.1095C95.6327 84.8535 94.5941 83.8149 93.3381 83.8149C93.1246 83.8149 92.9514 83.6418 92.9514 83.4282Z" fill="#1E247E"/>
<path fill-rule="evenodd" clip-rule="evenodd" d="M96.0452 99.1804C96.2587 99.1804 96.4319 99.3536 96.4319 99.5671V104.234C96.4319 104.447 96.2587 104.62 96.0452 104.62C95.8316 104.62 95.6584 104.447 95.6584 104.234V99.5671C95.6584 99.3536 95.8316 99.1804 96.0452 99.1804Z" fill="#1E247E"/>
<path fill-rule="evenodd" clip-rule="evenodd" d="M47.4245 97.2817C47.5333 97.1409 47.7357 97.1149 47.8765 97.2238L49.5781 98.5386C49.7189 98.6474 49.7449 98.8498 49.636 98.9907C49.5272 99.1315 49.3248 99.1575 49.184 99.0486L47.4824 97.7338C47.3416 97.625 47.3156 97.4226 47.4245 97.2817Z" fill="#1E247E"/>
<path fill-rule="evenodd" clip-rule="evenodd" d="M47.4233 95.6848C47.5313 95.5434 47.7335 95.5162 47.875 95.6242L51.2523 98.2024C51.3938 98.3103 51.421 98.5126 51.313 98.6541C51.205 98.7955 51.0027 98.8227 50.8613 98.7147L47.4839 96.1365C47.3424 96.0286 47.3153 95.8263 47.4233 95.6848Z" fill="#1E247E"/>
<path fill-rule="evenodd" clip-rule="evenodd" d="M49.8743 95.8888C49.9836 95.7483 50.186 95.723 50.3265 95.8323L51.2547 96.5542C51.3951 96.6634 51.4205 96.8659 51.3112 97.0064C51.2019 97.1469 50.9994 97.1722 50.859 97.0629L49.9308 96.3411C49.7903 96.2318 49.765 96.0293 49.8743 95.8888Z" fill="#1E247E"/>
<path fill-rule="evenodd" clip-rule="evenodd" d="M105.524 80.86C105.661 81.3392 105.383 81.8386 104.904 81.9755L102.738 82.5943C102.259 82.7312 101.76 82.4537 101.623 81.9745C101.486 81.4954 101.763 80.9959 102.243 80.859L104.408 80.2403C104.887 80.1034 105.387 80.3808 105.524 80.86Z" fill="white"/>
<path fill-rule="evenodd" clip-rule="evenodd" d="M102.955 77.332C103.317 77.674 103.334 78.2451 102.992 78.6076L101.265 80.4381C100.923 80.8005 100.352 80.8171 99.9891 80.475C99.6267 80.133 99.6101 79.5619 99.9521 79.1995L101.679 77.369C102.022 77.0065 102.593 76.99 102.955 77.332Z" fill="white"/>
<path fill-rule="evenodd" clip-rule="evenodd" d="M98.9247 75.0097C99.4164 75.0908 99.7494 75.5551 99.6683 76.0468L99.2816 78.3929C99.2005 78.8846 98.7362 79.2175 98.2445 79.1365C97.7528 79.0554 97.4199 78.5911 97.5009 78.0994L97.8876 75.7533C97.9687 75.2616 98.433 74.9287 98.9247 75.0097Z" fill="white"/>
</svg>
