<svg width="133" height="132" viewBox="0 0 133 132" fill="none" xmlns="http://www.w3.org/2000/svg">
<path d="M66.7062 121.507C97.4046 121.507 122.291 96.6212 122.291 65.9228C122.291 35.2244 97.4046 10.3384 66.7062 10.3384C36.0078 10.3384 11.1218 35.2244 11.1218 65.9228C11.1218 96.6212 36.0078 121.507 66.7062 121.507Z" fill="#EEEDF2"/>
<path fill-rule="evenodd" clip-rule="evenodd" d="M50.4328 56.4672C50.4185 56.521 50.3953 56.5913 50.3678 56.6686C50.3667 56.6718 50.3655 56.6749 50.3643 56.6781C50.3543 56.7164 50.3427 56.7627 50.3304 56.8169C50.2518 57.1629 50.1586 57.7538 50.1985 58.4468C50.2765 59.8007 50.8525 61.5526 53.156 62.7044C53.5381 62.8954 53.693 63.36 53.5019 63.7421C53.3109 64.1241 52.8463 64.279 52.4643 64.088C49.56 62.6358 48.7567 60.3143 48.6542 58.5358C48.6039 57.6626 48.7201 56.9226 48.822 56.4742C48.8716 56.256 48.9224 56.0866 48.9571 55.9952C48.9617 55.983 48.9706 55.96 48.9827 55.9338C48.9877 55.923 49.0011 55.8941 49.0214 55.8597C49.0308 55.8438 49.0527 55.8079 49.0862 55.7664C49.0864 55.7661 49.0868 55.7655 49.0874 55.7648C49.1018 55.7464 49.2127 55.6048 49.4152 55.5284C49.5413 55.4926 49.8404 55.4936 50.002 55.5449C50.1377 55.6224 50.3239 55.811 50.3799 55.9054C50.4595 56.0641 50.4616 56.2093 50.4619 56.2341C50.4619 56.2351 50.4619 56.2358 50.4619 56.2364C50.4636 56.3129 50.4529 56.374 50.4508 56.3858C50.4507 56.3862 50.4506 56.3866 50.4506 56.387C50.444 56.4248 50.4358 56.456 50.4328 56.4672Z" fill="#D3D5E7"/>
<path fill-rule="evenodd" clip-rule="evenodd" d="M55.3268 37.5902C49.4242 31.5908 41.4236 33.7582 37.6666 37.6615C37.3704 37.9693 36.8808 37.9786 36.573 37.6824C36.2653 37.3862 36.2559 36.8965 36.5521 36.5888C40.7358 32.2421 49.7508 29.7173 56.4295 36.5054C56.729 36.8098 56.7251 37.2995 56.4206 37.5991C56.1161 37.8987 55.6264 37.8947 55.3268 37.5902Z" fill="#D3D5E7"/>
<path fill-rule="evenodd" clip-rule="evenodd" d="M42.5608 38.1163C40.4897 39.1548 38.9982 40.8641 38.2504 42.2173L38.2494 42.2192L38.2483 42.2211C37.4762 43.5998 36.4889 44.695 35.6427 45.4593C35.3257 45.7456 34.8366 45.7208 34.5503 45.4038C34.264 45.0868 34.2889 44.5977 34.6058 44.3114C35.3577 43.6323 36.2261 42.6656 36.8976 41.4671C37.7744 39.8815 39.4793 37.931 41.8674 36.7335C44.2854 35.521 47.3813 35.0949 50.9399 36.565C54.5557 38.0588 56.0079 40.7306 56.5321 43.0139C56.7914 44.1435 56.8246 45.1747 56.794 45.9221C56.7786 46.2969 56.7471 46.6037 56.7187 46.82C56.7046 46.9283 56.6911 47.0141 56.6809 47.0748C56.6758 47.1052 56.6714 47.1293 56.6682 47.1467C56.6665 47.1555 56.6652 47.1626 56.6641 47.168L56.6638 47.1699L56.663 47.1739L56.6581 47.201C56.6538 47.2253 56.6473 47.2619 56.6391 47.3094C56.6228 47.4044 56.5995 47.543 56.5726 47.7151C56.5187 48.0597 56.4504 48.5359 56.3924 49.0628C56.2726 50.1505 56.2115 51.337 56.3534 52.0577C56.487 52.7357 56.8994 53.4604 57.4339 54.1507C57.9604 54.8305 58.5569 55.4163 58.9864 55.8206C59.2974 56.1133 59.3123 56.6028 59.0195 56.9139C58.7268 57.2249 58.2373 57.2398 57.9262 56.947C57.4791 56.5262 56.8124 55.8746 56.2109 55.0977C55.6175 54.3314 55.0373 53.3802 54.8357 52.3567C54.6425 51.3759 54.7361 49.9714 54.8548 48.8935C54.916 48.3375 54.9879 47.8372 55.0443 47.4761C55.0726 47.2953 55.0971 47.1487 55.1147 47.0467C55.1235 46.9957 55.1306 46.9558 55.1355 46.9284L55.1412 46.8966L55.1434 46.8845C55.1434 46.8844 55.1435 46.8843 55.904 47.0252L55.1434 46.8845L55.1447 46.8778L55.1456 46.873L55.1457 46.8725L55.1458 46.872L55.146 46.8713L55.1475 46.8634C55.1483 46.8588 55.1494 46.8527 55.1508 46.8451C55.1522 46.8374 55.1538 46.8281 55.1556 46.8173C55.1629 46.7743 55.1734 46.7073 55.185 46.6191C55.2081 46.4426 55.2352 46.182 55.2484 45.8587C55.275 45.2099 55.2453 44.322 55.0244 43.3601C54.5883 41.4604 53.4108 39.2595 50.3493 37.9947C47.2305 36.7063 44.603 37.0922 42.5608 38.1163Z" fill="#D3D5E7"/>
<path fill-rule="evenodd" clip-rule="evenodd" d="M42.6413 41.7009C41.6287 42.573 40.9166 43.6907 40.5038 44.4919C39.5941 46.2578 39.0665 47.0051 37.6145 48.6682L37.614 48.6689C37.023 49.3442 36.2793 49.9749 35.5804 50.4856C35.2355 50.7376 34.7516 50.6623 34.4996 50.3174C34.2476 49.9726 34.3229 49.4887 34.6677 49.2366C35.3094 48.7678 35.9577 48.2126 36.4495 47.6506C37.8333 46.0655 38.2854 45.4206 39.1287 43.7835C39.5925 42.8831 40.4144 41.5773 41.6318 40.5288C42.8607 39.4704 44.5217 38.653 46.6103 38.8295C48.5461 38.9931 50.302 39.5799 51.5831 40.7831C52.8807 42.0016 53.5953 43.7619 53.6092 46.0666C53.616 47.1997 53.4777 48.2718 53.3229 49.2688C53.283 49.5258 53.2425 49.7755 53.2028 50.0194C53.0857 50.7403 52.9768 51.4111 52.9164 52.0743C52.7599 53.7928 52.9495 55.2772 54.2412 56.7492C55.1223 57.7458 56.0838 58.2916 56.9936 58.5873C57.3998 58.7193 57.6221 59.1556 57.4901 59.5619C57.3581 59.9681 56.9217 60.1904 56.5155 60.0584C55.3631 59.6839 54.1593 58.9924 53.0812 57.7725L53.0795 57.7706C51.4071 55.8655 51.1973 53.8955 51.3759 51.934C51.4417 51.2117 51.5631 50.4647 51.6826 49.7295C51.7207 49.4952 51.7585 49.2621 51.7944 49.0314C51.9457 48.0569 52.0684 47.0827 52.0624 46.0759C52.0505 44.101 51.4503 42.7804 50.5242 41.9106C49.5817 41.0255 48.2052 40.5167 46.48 40.3709C44.9077 40.238 43.6425 40.8385 42.6413 41.7009Z" fill="#D3D5E7"/>
<path fill-rule="evenodd" clip-rule="evenodd" d="M44.7503 44.8897C43.7898 45.877 43.0499 47.1782 42.7413 47.8784L42.7391 47.8834L42.7369 47.8884C42.0088 49.4793 41.3881 50.5739 39.6238 52.2297L39.6222 52.2312C38.7807 53.0166 37.3448 53.9321 36.1171 54.6738C35.7515 54.8947 35.276 54.7774 35.0552 54.4118C34.8343 54.0462 34.9516 53.5707 35.3172 53.3498C36.5641 52.5965 37.8606 51.7591 38.5661 51.1009C40.1509 49.6135 40.6651 48.6977 41.3281 47.2495C41.691 46.4276 42.5227 44.9611 43.6416 43.811C44.729 42.6933 46.3426 41.6308 48.1552 42.304C49.7214 42.8857 50.5421 43.8771 50.8255 45.0406C51.0924 46.1357 50.8534 47.2688 50.5835 48.1324L50.5826 48.1352C50.3101 48.9957 49.6739 50.2756 48.9085 51.5173C48.1434 52.7584 47.1981 54.0453 46.2701 54.8901C45.2433 55.8479 42.6042 58.0669 40.6549 59.7059C40.3597 59.9541 40.0803 60.189 39.8247 60.4042C39.498 60.6794 39.0101 60.6376 38.7349 60.3108C38.4598 59.9841 38.5016 59.4962 38.8283 59.221C39.0873 59.0029 39.3688 58.7663 39.6649 58.5173C41.6248 56.8692 44.227 54.6811 45.2183 53.7558L45.222 53.7523L45.2258 53.7489C45.9982 53.0467 46.856 51.8991 47.5917 50.7056C48.3275 49.5118 48.8898 48.3562 49.1075 47.6696C49.3529 46.8837 49.4876 46.0837 49.3226 45.4067C49.1743 44.7977 48.7575 44.1778 47.6166 43.7541C46.7221 43.4218 45.7448 43.8675 44.7503 44.8897Z" fill="#D3D5E7"/>
<path fill-rule="evenodd" clip-rule="evenodd" d="M36.4089 53.666C36.5999 54.0481 36.4451 54.5126 36.063 54.7037C35.9411 54.7646 35.8311 54.8294 35.7058 54.9033C35.6445 54.9393 35.5796 54.9776 35.5079 55.0186C35.137 55.2305 34.6646 55.1017 34.4526 54.7308C34.2407 54.3599 34.3695 53.8874 34.7404 53.6755C34.777 53.6546 34.821 53.6287 34.8703 53.5997C35.0131 53.5156 35.1994 53.406 35.3712 53.3201C35.7533 53.1291 36.2179 53.2839 36.4089 53.666Z" fill="#D2D4E6"/>
<path fill-rule="evenodd" clip-rule="evenodd" d="M46.8752 45.6954C47.2679 45.8634 47.45 46.318 47.282 46.7107C44.6661 52.8235 40.0534 56.3098 37.0327 58.0586C36.663 58.2726 36.1898 58.1465 35.9758 57.7768C35.7618 57.4071 35.888 56.9339 36.2576 56.7199C39.115 55.0656 43.4227 51.7973 45.8599 46.1022C46.0279 45.7094 46.4825 45.5273 46.8752 45.6954Z" fill="#D3D5E7"/>
<path fill-rule="evenodd" clip-rule="evenodd" d="M42.462 62.0075L42.4617 62.0081C42.4617 62.008 42.4619 62.0077 42.4623 62.0072L42.4672 62.0003C42.4721 61.9933 42.4803 61.982 42.4916 61.9666C42.5141 61.9359 42.5489 61.8894 42.5947 61.8308C42.6865 61.7133 42.8209 61.5492 42.9881 61.3676C43.3308 60.9952 43.7743 60.5895 44.2399 60.3391C44.7031 60.09 45.0805 60.047 45.4016 60.1867C45.7465 60.3367 46.2473 60.7903 46.7245 62.0466C46.8762 62.4459 47.3228 62.6467 47.7221 62.495C48.1215 62.3434 48.3222 61.8967 48.1706 61.4974C47.6294 60.0724 46.9185 59.1596 46.0186 58.7682C45.095 58.3665 44.1946 58.6071 43.5073 58.9767C42.8224 59.3451 42.2427 59.8933 41.8499 60.3201C41.6492 60.5381 41.4878 60.735 41.3757 60.8785C41.3195 60.9504 41.2753 61.0095 41.2443 61.0516C41.2289 61.0727 41.2167 61.0897 41.2079 61.1019L41.1974 61.1168L41.1941 61.1215L41.1929 61.1231L41.1925 61.1238C41.1923 61.1241 41.1921 61.1243 41.8272 61.5657L41.1921 61.1243C40.9483 61.4751 41.0351 61.9571 41.3858 62.2008C41.7364 62.4445 42.2182 62.358 42.462 62.0075Z" fill="#D3D5E7"/>
<path d="M91.6108 72.8322H90.6311C90.2444 72.8322 89.9092 72.5229 89.9092 72.1619V65.8197C89.9092 60.3283 87.5373 55.3268 83.7217 51.6916C79.9061 48.0564 74.6467 45.8135 68.8717 45.8135C57.2959 45.8135 47.8342 54.8111 47.8342 65.7939V72.8064H43.3741C39.7131 72.8064 36.7483 75.5393 36.7483 78.8908V114.237C36.7483 117.588 39.7131 120.321 43.3741 120.321H93.8538C97.5147 120.321 100.48 117.588 100.48 114.237V81.0049C100.505 76.4932 96.5092 72.8322 91.6108 72.8322ZM56.4967 72.8322V65.8197C56.4967 58.0854 62.8131 51.7689 70.5217 51.7689C74.3889 51.7689 77.8952 53.3416 80.4217 55.8939C82.9741 58.4463 84.5467 61.9525 84.5467 65.8197V72.8322H56.4967Z" fill="#D3D5E7"/>
<path d="M88.2078 121.662H44.7406C40.2031 121.662 36.5164 117.975 36.5164 113.438V81.211C36.5164 76.6735 40.2031 72.9868 44.7406 72.9868H88.2078C92.7453 72.9868 96.432 76.6735 96.432 81.211V113.438C96.432 118.001 92.7453 121.662 88.2078 121.662Z" fill="white"/>
<path fill-rule="evenodd" clip-rule="evenodd" d="M44.7406 73.7603C40.6302 73.7603 37.2898 77.1007 37.2898 81.211V113.438C37.2898 117.548 40.6302 120.888 44.7406 120.888H88.2078C92.3197 120.888 95.6585 117.572 95.6585 113.438V81.211C95.6585 77.1007 92.3181 73.7603 88.2078 73.7603H44.7406ZM35.7429 81.211C35.7429 76.2464 39.7759 72.2134 44.7406 72.2134H88.2078C93.1724 72.2134 97.2054 76.2464 97.2054 81.211V113.438C97.2054 118.43 93.1708 122.435 88.2078 122.435H44.7406C39.7759 122.435 35.7429 118.402 35.7429 113.438V81.211Z" fill="#1E247E"/>
<path d="M68.2532 97.608L69.8 105.832C69.8516 106.142 69.6196 106.451 69.2844 106.451H63.6125C63.2774 106.451 63.0453 106.167 63.0969 105.832L64.6696 97.5822C64.7469 97.1697 64.5407 96.7572 64.1797 96.5252C62.736 95.6744 61.8336 94.0244 62.0141 92.1939C62.2203 90.1314 63.8961 88.4299 65.9586 88.1979C68.6657 87.8885 70.9602 90.0025 70.9602 92.658C70.9602 94.308 70.0578 95.7518 68.743 96.5252C68.3563 96.783 68.1758 97.1955 68.2532 97.608Z" fill="#DA867D"/>
<path fill-rule="evenodd" clip-rule="evenodd" d="M70.1868 92.6579C70.1868 90.4568 68.287 88.7101 66.0465 88.9662L66.0451 88.9664C64.3459 89.1575 62.9541 90.5699 62.7838 92.2703C62.6336 93.796 63.3841 95.1585 64.5724 95.8588L64.5854 95.8664L64.598 95.8745C65.1858 96.2524 65.573 96.9608 65.4298 97.7247L65.4293 97.727L63.9138 105.677H68.984L67.493 97.7505C67.3534 97.0061 67.6931 96.2955 68.314 95.8816L68.3321 95.8695L68.3509 95.8585C69.4414 95.217 70.1868 94.0203 70.1868 92.6579ZM65.8715 87.4292C69.0447 87.067 71.7337 89.5483 71.7337 92.6579C71.7337 94.5858 70.685 96.2693 69.1585 97.178C69.0183 97.2772 68.9987 97.3871 69.0134 97.4653C69.0134 97.4653 69.0134 97.4653 69.0134 97.4653L70.5617 105.697L70.563 105.705C70.6866 106.447 70.1365 107.224 69.2844 107.224H63.6126C62.7764 107.224 62.213 106.491 62.3325 105.715L62.3346 105.701L63.9094 97.4396C63.9094 97.4394 63.9095 97.4392 63.9095 97.439C63.9204 97.379 63.8963 97.2669 63.7705 97.1816C62.0811 96.1776 61.0346 94.246 61.2444 92.118L61.2445 92.1169C61.4869 89.6928 63.4462 87.7024 65.8715 87.4292Z" fill="#1E247E"/>
<path fill-rule="evenodd" clip-rule="evenodd" d="M67.2431 90.0903C67.3227 89.9311 67.5162 89.8666 67.6754 89.9462C68.4323 90.3246 68.975 91.0173 69.2303 91.8116C69.2848 91.9811 69.1916 92.1626 69.0221 92.217C68.8527 92.2715 68.6712 92.1783 68.6167 92.0088C68.408 91.3594 67.971 90.8146 67.3872 90.5227C67.228 90.4431 67.1635 90.2495 67.2431 90.0903Z" fill="#1E247E"/>
<path fill-rule="evenodd" clip-rule="evenodd" d="M92.8848 114.123C93.0616 114.143 93.1887 114.303 93.1685 114.48C92.9195 116.665 91.1776 118.407 88.9918 118.656C88.815 118.676 88.6553 118.549 88.6352 118.373C88.615 118.196 88.742 118.036 88.9189 118.016C90.8065 117.801 92.3131 116.294 92.5281 114.407C92.5483 114.23 92.708 114.103 92.8848 114.123Z" fill="#1E247E"/>
<path fill-rule="evenodd" clip-rule="evenodd" d="M46.5217 83.5414C46.6301 83.4002 46.8324 83.3735 46.9736 83.4819L51.4079 86.885C51.5491 86.9934 51.5757 87.1957 51.4674 87.3369C51.359 87.4781 51.1567 87.5047 51.0155 87.3963L46.5812 83.9932C46.44 83.8849 46.4133 83.6826 46.5217 83.5414Z" fill="#1E247E"/>
<path fill-rule="evenodd" clip-rule="evenodd" d="M46.5217 85.6813C46.6301 85.5401 46.8324 85.5134 46.9736 85.6218L49.1908 87.3234C49.3319 87.4317 49.3586 87.634 49.2502 87.7752C49.1418 87.9164 48.9395 87.943 48.7983 87.8347L46.5812 86.1331C46.44 86.0248 46.4133 85.8225 46.5217 85.6813Z" fill="#1E247E"/>
<path fill-rule="evenodd" clip-rule="evenodd" d="M49.7442 83.8509C49.8524 83.7096 50.0547 83.6828 50.196 83.7911L51.4077 84.7192C51.549 84.8274 51.5758 85.0297 51.4676 85.171C51.3593 85.3123 51.1571 85.3391 51.0158 85.2309L49.8041 84.3027C49.6628 84.1945 49.6359 83.9922 49.7442 83.8509Z" fill="#1E247E"/>
<path fill-rule="evenodd" clip-rule="evenodd" d="M82.3833 108.884C82.4916 108.743 82.6939 108.717 82.8351 108.825L87.2695 112.228C87.4107 112.336 87.4373 112.539 87.329 112.68C87.2206 112.821 87.0183 112.848 86.8771 112.739L82.4427 109.336C82.3015 109.228 82.2749 109.026 82.3833 108.884Z" fill="#1E247E"/>
<path fill-rule="evenodd" clip-rule="evenodd" d="M82.3833 111.024C82.4916 110.883 82.6939 110.856 82.8351 110.965L85.0523 112.666C85.1935 112.775 85.2201 112.977 85.1118 113.118C85.0034 113.259 84.8011 113.286 84.6599 113.178L82.4427 111.476C82.3015 111.368 82.2749 111.165 82.3833 111.024Z" fill="#1E247E"/>
<path fill-rule="evenodd" clip-rule="evenodd" d="M85.6057 109.194C85.714 109.053 85.9163 109.026 86.0576 109.134L87.2693 110.062C87.4106 110.17 87.4374 110.373 87.3291 110.514C87.2209 110.655 87.0186 110.682 86.8773 110.574L85.6656 109.646C85.5243 109.538 85.4975 109.335 85.6057 109.194Z" fill="#1E247E"/>
<path d="M80.6538 51.3564C77.0702 47.6439 72.1202 45.3494 66.7061 45.3494C55.8264 45.3494 46.9319 54.5533 46.9319 65.8197V72.9869H52.7842V65.8197C52.7842 57.9048 59.0491 51.408 66.7061 51.408C70.5217 51.408 74.0022 53.0322 76.5288 55.6361C79.0553 58.24 80.6022 61.8494 80.6022 65.8197V72.9869H86.4545V65.8197C86.4803 60.1736 84.2374 55.0689 80.6538 51.3564Z" fill="#F0C330"/>
<path fill-rule="evenodd" clip-rule="evenodd" d="M46.1584 65.8197C46.1584 54.1515 55.3743 44.5759 66.7061 44.5759C72.3437 44.5759 77.4907 46.9659 81.2102 50.8192C84.9269 54.6696 87.2542 59.9652 87.228 65.8215V73.7603H79.8288V65.8197C79.8288 62.0524 78.3616 58.6357 75.9737 56.1747C73.5815 53.7093 70.2969 52.1814 66.7061 52.1814C59.5016 52.1814 53.5577 58.3062 53.5577 65.8197V73.7603H46.1584V65.8197ZM66.7061 46.1228C56.2785 46.1228 47.7053 54.9551 47.7053 65.8197V72.2134H52.0108V65.8197C52.0108 57.5035 58.5965 50.6345 66.7061 50.6345C70.7465 50.6345 74.4229 52.3551 77.0838 55.0975C79.7491 57.8443 81.3756 61.6463 81.3756 65.8197V72.2134H85.6811V65.8197L85.6811 65.8161C85.7059 60.381 83.5474 55.4678 80.0973 51.8936C76.6497 48.3219 71.8966 46.1228 66.7061 46.1228Z" fill="#1E247E"/>
<path fill-rule="evenodd" clip-rule="evenodd" d="M83.0645 62.3394C83.0645 62.1614 83.2087 62.0171 83.3867 62.0171H86.3258C86.5038 62.0171 86.648 62.1614 86.648 62.3394C86.648 62.5173 86.5038 62.6616 86.3258 62.6616H83.3867C83.2087 62.6616 83.0645 62.5173 83.0645 62.3394Z" fill="#1E247E"/>
<path fill-rule="evenodd" clip-rule="evenodd" d="M46.1199 69.8159C46.1199 69.6379 46.2642 69.4937 46.4421 69.4937H49.3554C49.5334 69.4937 49.6777 69.6379 49.6777 69.8159C49.6777 69.9939 49.5334 70.1382 49.3554 70.1382H46.4421C46.2642 70.1382 46.1199 69.9939 46.1199 69.8159Z" fill="#1E247E"/>
<path fill-rule="evenodd" clip-rule="evenodd" d="M52.2559 51.8721C52.2559 51.6941 52.4001 51.5498 52.5781 51.5498H55.4914C55.6694 51.5498 55.8137 51.6941 55.8137 51.8721C55.8137 52.0501 55.6694 52.1943 55.4914 52.1943H52.5781C52.4001 52.1943 52.2559 52.0501 52.2559 51.8721Z" fill="#1E247E"/>
<path fill-rule="evenodd" clip-rule="evenodd" d="M104.656 121.662C104.656 121.235 105.003 120.888 105.43 120.888H121.852C122.28 120.888 122.626 121.235 122.626 121.662C122.626 122.089 122.28 122.435 121.852 122.435H105.43C105.003 122.435 104.656 122.089 104.656 121.662Z" fill="#1E247E"/>
<path fill-rule="evenodd" clip-rule="evenodd" d="M18.7273 121.662C18.7273 121.235 19.0736 120.888 19.5007 120.888H101.434C101.861 120.888 102.207 121.235 102.207 121.662C102.207 122.089 101.861 122.435 101.434 122.435H19.5007C19.0736 122.435 18.7273 122.089 18.7273 121.662Z" fill="#1E247E"/>
<path fill-rule="evenodd" clip-rule="evenodd" d="M9.91016 121.662C9.91016 121.235 10.2564 120.888 10.6836 120.888H15.8914C16.3186 120.888 16.6648 121.235 16.6648 121.662C16.6648 122.089 16.3186 122.435 15.8914 122.435H10.6836C10.2564 122.435 9.91016 122.089 9.91016 121.662Z" fill="#1E247E"/>
<path fill-rule="evenodd" clip-rule="evenodd" d="M89.1478 39.5401C89.366 39.9881 89.1798 40.5282 88.7318 40.7465L86.7208 41.7261C86.2728 41.9444 85.7327 41.7582 85.5144 41.3102C85.2962 40.8621 85.4824 40.322 85.9304 40.1038L87.9414 39.1241C88.3894 38.9058 88.9295 39.0921 89.1478 39.5401Z" fill="white"/>
<path fill-rule="evenodd" clip-rule="evenodd" d="M86.0228 36.526C86.4391 36.8001 86.5543 37.3597 86.2802 37.7759L84.888 39.89C84.6139 40.3062 84.0543 40.4214 83.6381 40.1473C83.2219 39.8732 83.1067 39.3136 83.3808 38.8974L84.773 36.7834C85.047 36.3672 85.6066 36.2519 86.0228 36.526Z" fill="white"/>
<path fill-rule="evenodd" clip-rule="evenodd" d="M81.6142 34.9338C82.1124 34.9231 82.525 35.3183 82.5357 35.8165L82.5872 38.2142C82.598 38.7124 82.2027 39.125 81.7045 39.1357C81.2063 39.1464 80.7937 38.7512 80.783 38.253L80.7314 35.8553C80.7207 35.3571 81.1159 34.9445 81.6142 34.9338Z" fill="white"/>
<path fill-rule="evenodd" clip-rule="evenodd" d="M105.453 59.3231C105.595 59.6494 105.446 60.0292 105.12 60.1714L101.958 61.5485L104.425 63.0466C104.533 63.0963 104.648 63.1851 104.728 63.3439C104.808 63.504 104.802 63.6539 104.788 63.7423C104.773 63.8294 104.744 63.8946 104.727 63.9293C104.692 63.9981 104.653 64.0457 104.639 64.0625C104.629 64.0743 104.621 64.084 104.614 64.0914C104.61 64.0952 104.607 64.0986 104.604 64.1016L104.6 64.1059L104.598 64.1079L104.597 64.1088L104.596 64.1095C104.596 64.1096 104.596 64.1097 104.14 63.6539L104.596 64.1097L104.484 64.2221L100.439 65.4811C100.099 65.5868 99.7379 65.3971 99.6321 65.0572C99.5263 64.7173 99.7161 64.356 100.056 64.2502L102.613 63.4544L100.333 62.0695C100.168 61.9733 99.9768 61.7726 99.9768 61.4625C99.9768 61.1278 100.2 60.9205 100.372 60.8345L100.387 60.8268L104.605 58.9896C104.931 58.8474 105.311 58.9967 105.453 59.3231Z" fill="#1E247E"/>
<path fill-rule="evenodd" clip-rule="evenodd" d="M27.4949 59.3231C27.6371 58.9967 28.0169 58.8474 28.3432 58.9896L32.5612 60.8268L32.5764 60.8345C32.7486 60.9205 32.9714 61.1278 32.9714 61.4625C32.9714 61.7726 32.7802 61.9733 32.6152 62.0696L30.3353 63.4544L32.8923 64.2502C33.2321 64.356 33.4219 64.7173 33.3161 65.0572C33.2103 65.3971 32.849 65.5868 32.5091 65.4811L28.4644 64.2221L28.352 64.1097L28.8077 63.6539C28.352 64.1097 28.3519 64.1096 28.3518 64.1095L28.3511 64.1088L28.3502 64.1079L28.3482 64.1059L28.3441 64.1016C28.3411 64.0986 28.3379 64.0952 28.3344 64.0914C28.3275 64.084 28.3188 64.0743 28.309 64.0625C28.295 64.0457 28.256 63.9981 28.2216 63.9293C28.2042 63.8946 28.1752 63.8294 28.1606 63.7423C28.1459 63.6539 28.1403 63.504 28.2204 63.3439C28.2998 63.1851 28.4155 63.0963 28.5236 63.0466L30.99 61.5485L27.8285 60.1714C27.5021 60.0292 27.3528 59.6494 27.4949 59.3231Z" fill="#1E247E"/>
</svg>
